<svg xmlns="http://www.w3.org/2000/svg" width="65" height="65"><path fill="#8e2e88" d="M64.704 52.481a.954.954 0 010 1.348L53.856 64.677a.95.95 0 01-1.348 0L39.804 51.973a.953.953 0 011.347-1.347l12.031 12.03 9.501-9.5-4.418-4.419-4.006 4.006a.95.95 0 01-1.347 0 .953.953 0 010-1.347l4.006-4.006-2.72-2.72-2.659 2.659a.95.95 0 01-1.347 0 .953.953 0 010-1.347l2.658-2.66-2.72-2.72-4.005 4.007a.95.95 0 01-1.348 0 .953.953 0 010-1.348l4.006-4.005-2.72-2.72-2.659 2.658a.95.95 0 01-1.347 0 .953.953 0 010-1.347l2.658-2.659-2.147-2.147-4.272 4.272-5.228 5.229 5.312 5.312a.953.953 0 01-1.347 1.347L31.72 43.89 20.96 54.65l-5.003 5.004-.002.001-4.142 4.142A4.083 4.083 0 018.907 65a4.083 4.083 0 01-2.906-1.204L1.214 59.01A4.082 4.082 0 01.01 56.103c0-1.098.428-2.13 1.204-2.906L21.12 33.29 7.181 19.349a.953.953 0 111.347-1.347l13.941 13.94 9.5-9.5-2.174-2.175-4.006 4.005a.95.95 0 01-1.347 0 .953.953 0 010-1.347l4.006-4.006-2.72-2.72-2.66 2.66a.95.95 0 01-1.347 0 .952.952 0 010-1.348l2.66-2.659-2.72-2.72-4.006 4.006a.95.95 0 01-1.348 0 .953.953 0 010-1.347l4.006-4.006-2.72-2.72-2.659 2.659a.95.95 0 01-1.347 0 .952.952 0 010-1.347l2.658-2.659L11.827 2.3l-9.5 9.5 3.492 3.493A.953.953 0 114.47 16.64L.306 12.474a.953.953 0 010-1.347L11.154.28a.953.953 0 011.347 0l9.831 9.831.002.002 4.066 4.066.001.001 4.067 4.067 2.848 2.849 4.453-4.453a.953.953 0 011.347 1.347L12.383 44.723l7.904 7.905 10.76-10.76 5.97-5.97 20.479-20.48-7.905-7.904-7.777 7.777a.953.953 0 11-1.347-1.348l8.45-8.45a.946.946 0 01.359-.224l.013-.006 7.618-2.69L63.575.22a.953.953 0 011.216 1.216l-2.354 6.666v.001l-2.69 7.618c0 .004-.003.008-.004.012a.947.947 0 01-.225.36l-15.601 15.6zM58.967 3.867l2.176 2.176L62.33 2.68zm-.513 9.794l1.986-5.627-3.464-3.464-5.627 1.987zm-44.52 45.32L6.03 51.076l-3.47 3.469a2.19 2.19 0 00-.646 1.558c0 .589.23 1.142.646 1.559l4.788 4.787c.416.417.97.646 1.558.646a2.19 2.19 0 001.559-.646zm5.006-5.006l-7.905-7.905-3.658 3.658 7.905 7.905z"/><path fill="none" stroke="#8e2e88" stroke-miterlimit="20" stroke-width=".3" d="M64.704 52.481a.954.954 0 010 1.348L53.856 64.677a.95.95 0 01-1.348 0L39.804 51.973a.953.953 0 011.347-1.347l12.031 12.03 9.501-9.5-4.418-4.419-4.006 4.006a.95.95 0 01-1.347 0 .953.953 0 010-1.347l4.006-4.006-2.72-2.72-2.659 2.659a.95.95 0 01-1.347 0 .953.953 0 010-1.347l2.658-2.66-2.72-2.72-4.005 4.007a.95.95 0 01-1.348 0 .953.953 0 010-1.348l4.006-4.005-2.72-2.72-2.659 2.658a.95.95 0 01-1.347 0 .953.953 0 010-1.347l2.658-2.659-2.147-2.147-4.272 4.272-5.228 5.229 5.312 5.312a.953.953 0 01-1.347 1.347L31.72 43.89 20.96 54.65l-5.003 5.004-.002.001-4.142 4.142A4.083 4.083 0 018.907 65a4.083 4.083 0 01-2.906-1.204L1.214 59.01A4.082 4.082 0 01.01 56.103c0-1.098.428-2.13 1.204-2.906L21.12 33.29 7.181 19.349a.953.953 0 111.347-1.347l13.941 13.94 9.5-9.5-2.174-2.175-4.006 4.005a.95.95 0 01-1.347 0 .953.953 0 010-1.347l4.006-4.006-2.72-2.72-2.66 2.66a.95.95 0 01-1.347 0 .952.952 0 010-1.348l2.66-2.659-2.72-2.72-4.006 4.006a.95.95 0 01-1.348 0 .953.953 0 010-1.347l4.006-4.006-2.72-2.72-2.659 2.659a.95.95 0 01-1.347 0 .952.952 0 010-1.347l2.658-2.659L11.827 2.3l-9.5 9.5 3.492 3.493A.953.953 0 114.47 16.64L.306 12.474a.953.953 0 010-1.347L11.154.28a.953.953 0 011.347 0l9.831 9.831.002.002s0 0 0 0l4.066 4.066s0 0 0 0l.001.001 4.067 4.067s0 0 0 0l2.848 2.849 4.453-4.453a.953.953 0 011.347 1.347L12.383 44.723l7.904 7.905 10.76-10.76s0 0 0 0l5.97-5.97 20.479-20.48-7.905-7.904-7.777 7.777a.953.953 0 11-1.347-1.348l8.45-8.45a.946.946 0 01.359-.224l.013-.006 7.618-2.69s0 0 0 0L63.575.22a.953.953 0 011.216 1.216l-2.354 6.666v.001l-2.69 7.618c0 .004-.003.008-.004.012a.947.947 0 01-.225.36l-15.601 15.6zM58.967 3.867l2.176 2.176L62.33 2.68zm-.513 9.794l1.986-5.627-3.464-3.464-5.627 1.987zm-44.52 45.32L6.03 51.076l-3.47 3.469a2.19 2.19 0 00-.646 1.558c0 .589.23 1.142.646 1.559l4.788 4.787c.416.417.97.646 1.558.646a2.19 2.19 0 001.559-.646zm5.006-5.006l-7.905-7.905-3.658 3.658 7.905 7.905z"/></svg>