<svg xmlns="http://www.w3.org/2000/svg" width="66" height="66"><path fill="#8e2e88" d="M63.57 8.998a7.665 7.665 0 012.245 5.41v43.976a7.438 7.438 0 01-7.427 7.431H.19v-52.5h17.5v2.187H2.377V35.16a27.312 27.312 0 0012.424 15.915l.547-2.034a3.281 3.281 0 01-1.319-3.53l7.184-26.789a7.636 7.636 0 011.946-10.586v-3.57a4.375 4.375 0 118.75 0v3.57a7.636 7.636 0 011.945 10.586l7.178 26.784a3.29 3.29 0 01-1.313 3.536l.903 3.366a1.095 1.095 0 11-2.114.564l-.903-3.373a3.195 3.195 0 01-2.904-2.406l-3.6-13.422a19.57 19.57 0 01-2.474.294v1.126a1.093 1.093 0 11-2.187 0v-1.125a19.574 19.574 0 01-2.474-.297l-3.6 13.427a3.2 3.2 0 01-2.903 2.406l-.68 2.533a27.169 27.169 0 0011.845 2.743 1.093 1.093 0 110 2.188 29.64 29.64 0 01-26.25-16.06v22.622h56.01a5.25 5.25 0 005.24-5.239v-.23a5.468 5.468 0 10-10.938 0 1.093 1.093 0 11-2.187 0V15.503H37.378v-2.187H50.59a7.656 7.656 0 017.569-6.563c2.03.003 3.976.81 5.411 2.246zM28.628 31.843a17.4 17.4 0 001.897-.219l-2.568-9.579c-.141.008-.28.022-.423.022-.143 0-.282-.014-.423-.022l-2.569 9.58a17.4 17.4 0 001.898.218v-1.028a1.093 1.093 0 112.187 0zm3.454-11.29a7.636 7.636 0 01-1.977 1.058l6.718 25.022a1.075 1.075 0 00.502.665c.25.144.547.183.826.11h.006a1.104 1.104 0 00.766-1.34zM25.346 7.081a7.577 7.577 0 014.375 0V4.565a2.187 2.187 0 10-4.375 0zm-1.677 3.463a5.475 5.475 0 00-1.604 3.865 5.469 5.469 0 105.469-5.469 5.475 5.475 0 00-3.865 1.604zm-7.526 35.528a1.104 1.104 0 00.775 1.34h.01a1.094 1.094 0 001.323-.774l6.711-25.027a7.636 7.636 0 01-1.976-1.058zm47.484-31.663a5.468 5.468 0 10-10.937 0v38.396a7.648 7.648 0 0110.938 0z"/><path fill="#8e2e88" d="M25.211 16.721a3.281 3.281 0 114.64-4.64 3.281 3.281 0 01-4.64 4.64zm1.547-3.093a1.094 1.094 0 101.547 1.547 1.094 1.094 0 00-1.547-1.547z"/></svg>