<svg xmlns="http://www.w3.org/2000/svg" width="72" height="66"><defs><clipPath id="a"><path fill="#fff" d="M35.916 66H4.875c-3.057 0-5.07-1.996-4.871-4.804.05-.69.298-1.306.62-1.922 10.44-18.92 20.878-37.84 31.316-56.736C32.835.936 34.127 0 35.966 0c1.89 0 3.181.96 4.076 2.587 10.414 18.871 20.852 37.718 31.24 56.589C73.198 62.625 71.11 66 67.059 66c-8.823.025-17.646 0-26.47 0h-4.671zm.05-2.538H66.81c.298 0 .622.025.92-.024 1.292-.148 2.038-1.38 1.54-2.587-.124-.296-.298-.542-.447-.813a71406.266 71406.266 0 00-22.169-40.157 2560.702 2560.702 0 00-8.798-16.013c-.422-.74-.92-1.33-1.84-1.33-.919 0-1.49.542-1.863 1.305-.05.074-.1.173-.124.247C23.714 22.764 13.375 41.462 3.06 60.16c-1.093 1.996-.323 3.301 1.989 3.301h30.917z"/></clipPath><clipPath id="b"><path fill="#fff" d="M35.988 60.925H9.072c-1.64-.025-2.138-.838-1.367-2.242 2.212-4.09 4.449-8.18 6.66-12.269L34.497 9.386a6.47 6.47 0 00.223-.419c.274-.517.597-.911 1.268-.936.696-.025 1.069.394 1.367.936 1.814 3.35 3.653 6.726 5.468 10.076L64.22 58.436c.15.271.298.542.398.838.273.764-.199 1.503-1.02 1.626-.347.05-.67.025-1.018.025H35.988zm.025-48.977c-.174.271-.249.37-.298.468-8.202 15.077-16.379 30.155-24.58 45.232-.423.764-.1.764.521.764h12.402c1.765 0 1.765 0 1.765-1.75V32.47c0-1.33.373-1.798 1.54-1.823 3.605-.025 7.208-.099 10.812.025 5.667.197 10.19 4.508 10.513 9.83.348 5.666-3.355 10.42-8.922 11.43-1.392.247-2.784.173-4.176.148-.696-.024-.894.222-.87.912.05 1.478.075 2.956 0 4.434-.05.813.2 1.035 1.02 1.035 8.126-.025 16.278-.025 24.405-.025 1.119 0 1.144 0 .597-.985a61388.743 61388.743 0 01-22.368-41.192 202.034 202.034 0 00-2.361-4.31zm-7.655 33.825c0 3.942.025 7.884 0 11.826 0 .665.199.862.845.837.596-.049 1.168 0 1.765 0 1.217 0 1.217 0 1.217-1.182 0-2.07-.025-4.114 0-6.184.025-1.035.448-1.453 1.491-1.478 1.367-.025 2.734 0 4.101 0 4.673-.025 8.351-3.597 8.4-8.13.05-4.607-3.653-8.253-8.425-8.278-2.783-.024-5.592.025-8.375-.024-.795-.025-1.044.148-1.044.985.05 3.893.025 7.76.025 11.629z"/></clipPath><clipPath id="c"><path fill="#fff" d="M35.941 45.777c-.77 0-1.54.025-2.336 0-.944-.025-1.392-.419-1.416-1.33-.025-2.02-.025-4.065 0-6.085 0-.912.447-1.355 1.391-1.38 1.541-.025 3.107-.05 4.648.05 2.46.147 4.175 2.118 4.1 4.582-.074 2.29-1.963 4.114-4.349 4.163-.67.025-1.366 0-2.038 0zm.647-6.282c-.373 0-.746.025-1.119 0-.546-.05-.795.098-.77.69.05.837.025 1.65 0 2.488 0 .32-.025.64.447.616.994-.025 1.988.05 2.958-.05.994-.098 1.64-.862 1.665-1.798.025-.985-.621-1.774-1.64-1.921-.497-.074-1.02 0-1.541 0z"/></clipPath></defs><path fill="#8e2e88" d="M35.916 66H4.875c-3.057 0-5.07-1.996-4.871-4.804.05-.69.298-1.306.62-1.922 10.44-18.92 20.878-37.84 31.316-56.736C32.835.936 34.127 0 35.966 0c1.89 0 3.181.96 4.076 2.587 10.414 18.871 20.852 37.718 31.24 56.589C73.198 62.625 71.11 66 67.059 66c-8.823.025-17.646 0-26.47 0h-4.671zm.05-2.538H66.81c.298 0 .622.025.92-.024 1.292-.148 2.038-1.38 1.54-2.587-.124-.296-.298-.542-.447-.813a71406.266 71406.266 0 00-22.169-40.157 2560.702 2560.702 0 00-8.798-16.013c-.422-.74-.92-1.33-1.84-1.33-.919 0-1.49.542-1.863 1.305-.05.074-.1.173-.124.247C23.714 22.764 13.375 41.462 3.06 60.16c-1.093 1.996-.323 3.301 1.989 3.301h30.917z"/><path fill="none" stroke="#fff" stroke-miterlimit="20" stroke-width=".2" d="M35.916 66H4.875c-3.057 0-5.07-1.996-4.871-4.804.05-.69.298-1.306.62-1.922 10.44-18.92 20.878-37.84 31.316-56.736C32.835.936 34.127 0 35.966 0c1.89 0 3.181.96 4.076 2.587 10.414 18.871 20.852 37.718 31.24 56.589C73.198 62.625 71.11 66 67.059 66c-8.823.025-17.646 0-26.47 0h-4.671zm.05-2.538H66.81c.298 0 .622.025.92-.024 1.292-.148 2.038-1.38 1.54-2.587-.124-.296-.298-.542-.447-.813a71406.266 71406.266 0 00-22.169-40.157 2560.702 2560.702 0 00-8.798-16.013c-.422-.74-.92-1.33-1.84-1.33-.919 0-1.49.542-1.863 1.305-.05.074-.1.173-.124.247C23.714 22.764 13.375 41.462 3.06 60.16c-1.093 1.996-.323 3.301 1.989 3.301h30.917z" clip-path="url(&quot;#a&quot;)"/><path fill="#8e2e88" d="M35.988 60.925H9.072c-1.64-.025-2.138-.838-1.367-2.242 2.212-4.09 4.449-8.18 6.66-12.269L34.497 9.386a6.47 6.47 0 00.223-.419c.274-.517.597-.911 1.268-.936.696-.025 1.069.394 1.367.936 1.814 3.35 3.653 6.726 5.468 10.076L64.22 58.436c.15.271.298.542.398.838.273.764-.199 1.503-1.02 1.626-.347.05-.67.025-1.018.025H35.988zm.025-48.977c-.174.271-.249.37-.298.468-8.202 15.077-16.379 30.155-24.58 45.232-.423.764-.1.764.521.764h12.402c1.765 0 1.765 0 1.765-1.75V32.47c0-1.33.373-1.798 1.54-1.823 3.605-.025 7.208-.099 10.812.025 5.667.197 10.19 4.508 10.513 9.83.348 5.666-3.355 10.42-8.922 11.43-1.392.247-2.784.173-4.176.148-.696-.024-.894.222-.87.912.05 1.478.075 2.956 0 4.434-.05.813.2 1.035 1.02 1.035 8.126-.025 16.278-.025 24.405-.025 1.119 0 1.144 0 .597-.985a61388.743 61388.743 0 01-22.368-41.192 202.034 202.034 0 00-2.361-4.31zm-7.655 33.825c0 3.942.025 7.884 0 11.826 0 .665.199.862.845.837.596-.049 1.168 0 1.765 0 1.217 0 1.217 0 1.217-1.182 0-2.07-.025-4.114 0-6.184.025-1.035.448-1.453 1.491-1.478 1.367-.025 2.734 0 4.101 0 4.673-.025 8.351-3.597 8.4-8.13.05-4.607-3.653-8.253-8.425-8.278-2.783-.024-5.592.025-8.375-.024-.795-.025-1.044.148-1.044.985.05 3.893.025 7.76.025 11.629z"/><path fill="none" stroke="#fff" stroke-miterlimit="20" stroke-width=".2" d="M35.988 60.925H9.072c-1.64-.025-2.138-.838-1.367-2.242 2.212-4.09 4.449-8.18 6.66-12.269L34.497 9.386a6.47 6.47 0 00.223-.419c.274-.517.597-.911 1.268-.936.696-.025 1.069.394 1.367.936 1.814 3.35 3.653 6.726 5.468 10.076L64.22 58.436c.15.271.298.542.398.838.273.764-.199 1.503-1.02 1.626-.347.05-.67.025-1.018.025H35.988zm.025-48.977c-.174.271-.249.37-.298.468-8.202 15.077-16.379 30.155-24.58 45.232-.423.764-.1.764.521.764h12.402c1.765 0 1.765 0 1.765-1.75V32.47c0-1.33.373-1.798 1.54-1.823 3.605-.025 7.208-.099 10.812.025 5.667.197 10.19 4.508 10.513 9.83.348 5.666-3.355 10.42-8.922 11.43-1.392.247-2.784.173-4.176.148-.696-.024-.894.222-.87.912.05 1.478.075 2.956 0 4.434-.05.813.2 1.035 1.02 1.035 8.126-.025 16.278-.025 24.405-.025 1.119 0 1.144 0 .597-.985a61388.743 61388.743 0 01-22.368-41.192 202.034 202.034 0 00-2.361-4.31zm-7.655 33.825c0 3.942.025 7.884 0 11.826 0 .665.199.862.845.837.596-.049 1.168 0 1.765 0 1.217 0 1.217 0 1.217-1.182 0-2.07-.025-4.114 0-6.184.025-1.035.448-1.453 1.491-1.478 1.367-.025 2.734 0 4.101 0 4.673-.025 8.351-3.597 8.4-8.13.05-4.607-3.653-8.253-8.425-8.278-2.783-.024-5.592.025-8.375-.024-.795-.025-1.044.148-1.044.985.05 3.893.025 7.76.025 11.629z" clip-path="url(&quot;#b&quot;)"/><path fill="#8e2e88" d="M35.941 45.777c-.77 0-1.54.025-2.336 0-.944-.025-1.392-.419-1.416-1.33-.025-2.02-.025-4.065 0-6.085 0-.912.447-1.355 1.391-1.38 1.541-.025 3.107-.05 4.648.05 2.46.147 4.175 2.118 4.1 4.582-.074 2.29-1.963 4.114-4.349 4.163-.67.025-1.366 0-2.038 0zm.647-6.282c-.373 0-.746.025-1.119 0-.546-.05-.795.098-.77.69.05.837.025 1.65 0 2.488 0 .32-.025.64.447.616.994-.025 1.988.05 2.958-.05.994-.098 1.64-.862 1.665-1.798.025-.985-.621-1.774-1.64-1.921-.497-.074-1.02 0-1.541 0z"/><path fill="none" stroke="#fff" stroke-miterlimit="20" stroke-width=".2" d="M35.941 45.777c-.77 0-1.54.025-2.336 0-.944-.025-1.392-.419-1.416-1.33-.025-2.02-.025-4.065 0-6.085 0-.912.447-1.355 1.391-1.38 1.541-.025 3.107-.05 4.648.05 2.46.147 4.175 2.118 4.1 4.582-.074 2.29-1.963 4.114-4.349 4.163-.67.025-1.366 0-2.038 0zm.647-6.282c-.373 0-.746.025-1.119 0-.546-.05-.795.098-.77.69.05.837.025 1.65 0 2.488 0 .32-.025.64.447.616.994-.025 1.988.05 2.958-.05.994-.098 1.64-.862 1.665-1.798.025-.985-.621-1.774-1.64-1.921-.497-.074-1.02 0-1.541 0z" clip-path="url(&quot;#c&quot;)"/></svg>