<svg xmlns="http://www.w3.org/2000/svg" width="71" height="72"><defs><clipPath id="a"><path fill="#fff" d="M69.317 24.498a4.809 4.809 0 01.898 4.221L65.13 47.947a5.93 5.93 0 01-1.847 2.969l-5.464 4.75a3.56 3.56 0 00-.906 1.216 3.603 3.603 0 00-.321 1.49v1.377h2.344c.31 0 .609.125.828.347.22.223.343.525.343.84v9.5c0 .315-.123.617-.343.84-.22.223-.518.348-.828.348H37.842c-.31 0-.609-.125-.829-.348a1.196 1.196 0 01-.343-.84v-9.5c0-.315.123-.617.343-.84.22-.222.518-.347.829-.347h2.344v-9.011a10.838 10.838 0 011.402-5.31 10.661 10.661 0 013.814-3.908l8.013-4.763a4.627 4.627 0 014.922.15l2.768-10.45a4.86 4.86 0 012.062-2.924 4.746 4.746 0 013.48-.69 4.698 4.698 0 012.67 1.655zM57.764 62.124h-18.75v7.125h18.75zm10.188-34.021A2.403 2.403 0 0067.498 26a2.347 2.347 0 00-1.33-.822 2.46 2.46 0 00-1.765.397 2.52 2.52 0 00-1.033 1.503L60.146 39.25a4.91 4.91 0 01-.048 3.318 4.83 4.83 0 01-2.142 2.509l-6.563 3.832a1.164 1.164 0 01-1.602-.436 1.198 1.198 0 01.43-1.623l6.563-3.832c.546-.3.96-.8 1.158-1.397a2.525 2.525 0 00-.09-1.822 2.333 2.333 0 00-.862-.96 2.29 2.29 0 00-1.233-.347c-.41 0-.815.11-1.171.317l-8.004 4.759a8.291 8.291 0 00-2.964 3.04 8.43 8.43 0 00-1.089 4.13v9.01h11.72v-1.377c0-.856.182-1.702.535-2.48a5.932 5.932 0 011.51-2.026l5.465-4.75a3.55 3.55 0 001.107-1.782z"/></clipPath><clipPath id="b"><path fill="#fff" d="M33.155 59.75c.31 0 .609.125.828.348.22.223.344.525.344.84v9.5c0 .315-.124.617-.344.84-.22.222-.517.347-.828.347H12.06c-.31 0-.609-.125-.829-.348a1.195 1.195 0 01-.343-.84v-9.5a1.2 1.2 0 01.343-.839c.22-.223.518-.348.829-.348h2.344v-1.377a3.59 3.59 0 00-.323-1.49 3.56 3.56 0 00-.909-1.217l-5.464-4.75a5.92 5.92 0 01-1.846-2.968L.777 28.718a4.819 4.819 0 01.54-3.714 4.732 4.732 0 011.294-1.396 4.663 4.663 0 011.733-.765 4.753 4.753 0 013.481.69 4.867 4.867 0 012.065 2.923l2.766 10.45a4.632 4.632 0 014.922-.154l8.023 4.769a10.661 10.661 0 013.81 3.91 10.839 10.839 0 011.4 5.309v9.01zm-18.453-5.886a5.93 5.93 0 011.51 2.027c.354.779.537 1.625.537 2.482v1.377h11.718v-9.01a8.425 8.425 0 00-1.088-4.13 8.287 8.287 0 00-2.964-3.04l-8.013-4.765a2.32 2.32 0 00-1.165-.311 2.293 2.293 0 00-1.228.345c-.37.229-.669.558-.863.95a2.524 2.524 0 00-.09 1.823 2.486 2.486 0 001.159 1.397l6.562 3.832c.27.157.467.417.547.721.08.305.039.63-.116.902a1.176 1.176 0 01-.712.554c-.3.082-.621.04-.89-.118l-6.563-3.832a4.83 4.83 0 01-2.142-2.51 4.91 4.91 0 01-.048-3.318L7.629 27.07a2.524 2.524 0 00-1.034-1.503 2.464 2.464 0 00-1.763-.398 2.347 2.347 0 00-1.336.825 2.403 2.403 0 00-.451 2.11L8.13 47.332a3.542 3.542 0 001.107 1.78zm17.28 8.261h-18.75v7.125h18.75z"/></clipPath><clipPath id="c"><path fill="#fff" d="M54.25 16.522a29.931 29.931 0 01-4.167 15.28A29.412 29.412 0 0138.74 42.716l-2.688 1.453a1.16 1.16 0 01-1.104 0l-2.688-1.453A29.415 29.415 0 0120.917 31.8a29.935 29.935 0 01-4.167-15.279V1.56a1.2 1.2 0 01.585-1.03 1.16 1.16 0 011.173 0l1.665.965a12.721 12.721 0 0012.163.34l2.63-1.338a1.16 1.16 0 011.049 0l2.65 1.342a12.724 12.724 0 0012.157-.343l1.67-.967a1.16 1.16 0 011.602.436 1.2 1.2 0 01.156.595zm-16.614 24.1a27.058 27.058 0 0010.436-10.043 27.537 27.537 0 003.834-14.057V3.606a15.049 15.049 0 01-7.1 1.99 15.035 15.035 0 01-7.19-1.627l-2.125-1.076-2.11 1.07a15.036 15.036 0 01-7.187 1.629 15.05 15.05 0 01-7.1-1.986v12.916a27.539 27.539 0 003.834 14.057A27.06 27.06 0 0033.364 40.62l2.136 1.156z"/></clipPath><clipPath id="d"><path fill="#fff" d="M49.565 16.52a25.141 25.141 0 01-3.5 12.835 24.703 24.703 0 01-9.529 9.169l-.483.261a1.16 1.16 0 01-1.102 0l-.482-.261a24.703 24.703 0 01-9.528-9.17 25.141 25.141 0 01-3.501-12.833V8.722a1.2 1.2 0 01.434-.921 1.166 1.166 0 01.98-.24c3.911.845 7.99.323 11.573-1.48l.541-.274a1.16 1.16 0 011.055 0l.553.28c3.582 1.8 7.66 2.32 11.57 1.475a1.157 1.157 0 01.983.237 1.184 1.184 0 01.436.925zm-2.344-6.379a19.83 19.83 0 01-11.69-1.93l-.028-.015-.022.012a19.855 19.855 0 01-11.697 1.932v6.38a22.75 22.75 0 003.147 11.578 22.355 22.355 0 008.572 8.293 22.355 22.355 0 008.571-8.293 22.75 22.75 0 003.147-11.577z"/></clipPath><clipPath id="e"><path fill="#fff" d="M42.128 14.543l-8.973 9.092-3.659-3.707a1.164 1.164 0 00-1.643.014 1.195 1.195 0 00-.014 1.665l4.487 4.547a1.164 1.164 0 001.657 0l9.802-9.932a1.188 1.188 0 00.357-.844 1.203 1.203 0 00-.343-.85 1.17 1.17 0 00-.839-.348 1.16 1.16 0 00-.832.363z"/></clipPath></defs><path fill="#8e2e88" d="M69.317 24.498a4.809 4.809 0 01.898 4.221L65.13 47.947a5.93 5.93 0 01-1.847 2.969l-5.464 4.75a3.56 3.56 0 00-.906 1.216 3.603 3.603 0 00-.321 1.49v1.377h2.344c.31 0 .609.125.828.347.22.223.343.525.343.84v9.5c0 .315-.123.617-.343.84-.22.223-.518.348-.828.348H37.842c-.31 0-.609-.125-.829-.348a1.196 1.196 0 01-.343-.84v-9.5c0-.315.123-.617.343-.84.22-.222.518-.347.829-.347h2.344v-9.011a10.838 10.838 0 011.402-5.31 10.661 10.661 0 013.814-3.908l8.013-4.763a4.627 4.627 0 014.922.15l2.768-10.45a4.86 4.86 0 012.062-2.924 4.746 4.746 0 013.48-.69 4.698 4.698 0 012.67 1.655zM57.764 62.124h-18.75v7.125h18.75zm10.188-34.021A2.403 2.403 0 0067.498 26a2.347 2.347 0 00-1.33-.822 2.46 2.46 0 00-1.765.397 2.52 2.52 0 00-1.033 1.503L60.146 39.25a4.91 4.91 0 01-.048 3.318 4.83 4.83 0 01-2.142 2.509l-6.563 3.832a1.164 1.164 0 01-1.602-.436 1.198 1.198 0 01.43-1.623l6.563-3.832c.546-.3.96-.8 1.158-1.397a2.525 2.525 0 00-.09-1.822 2.333 2.333 0 00-.862-.96 2.29 2.29 0 00-1.233-.347c-.41 0-.815.11-1.171.317l-8.004 4.759a8.291 8.291 0 00-2.964 3.04 8.43 8.43 0 00-1.089 4.13v9.01h11.72v-1.377c0-.856.182-1.702.535-2.48a5.932 5.932 0 011.51-2.026l5.465-4.75a3.55 3.55 0 001.107-1.782z"/><path fill="none" stroke="#35b6b4" stroke-miterlimit="20" stroke-width=".2" d="M69.317 24.498a4.809 4.809 0 01.898 4.221L65.13 47.947a5.93 5.93 0 01-1.847 2.969l-5.464 4.75a3.56 3.56 0 00-.906 1.216 3.603 3.603 0 00-.321 1.49v1.377h2.344c.31 0 .609.125.828.347.22.223.343.525.343.84v9.5c0 .315-.123.617-.343.84-.22.223-.518.348-.828.348H37.842c-.31 0-.609-.125-.829-.348a1.196 1.196 0 01-.343-.84v-9.5c0-.315.123-.617.343-.84.22-.222.518-.347.829-.347h2.344v-9.011a10.838 10.838 0 011.402-5.31 10.661 10.661 0 013.814-3.908l8.013-4.763a4.627 4.627 0 014.922.15l2.768-10.45a4.86 4.86 0 012.062-2.924 4.746 4.746 0 013.48-.69 4.698 4.698 0 012.67 1.655zM57.764 62.124h-18.75v7.125h18.75zm10.188-34.021A2.403 2.403 0 0067.498 26a2.347 2.347 0 00-1.33-.822 2.46 2.46 0 00-1.765.397 2.52 2.52 0 00-1.033 1.503L60.146 39.25a4.91 4.91 0 01-.048 3.318 4.83 4.83 0 01-2.142 2.509l-6.563 3.832a1.164 1.164 0 01-1.602-.436 1.198 1.198 0 01.43-1.623l6.563-3.832c.546-.3.96-.8 1.158-1.397a2.525 2.525 0 00-.09-1.822 2.333 2.333 0 00-.862-.96 2.29 2.29 0 00-1.233-.347c-.41 0-.815.11-1.171.317l-8.004 4.759a8.291 8.291 0 00-2.964 3.04 8.43 8.43 0 00-1.089 4.13v9.01h11.72v-1.377c0-.856.182-1.702.535-2.48a5.932 5.932 0 011.51-2.026l5.465-4.75a3.55 3.55 0 001.107-1.782z" clip-path="url(&quot;#a&quot;)"/><path fill="#8e2e88" d="M33.155 59.75c.31 0 .609.125.828.348.22.223.344.525.344.84v9.5c0 .315-.124.617-.344.84-.22.222-.517.347-.828.347H12.06c-.31 0-.609-.125-.829-.348a1.195 1.195 0 01-.343-.84v-9.5a1.2 1.2 0 01.343-.839c.22-.223.518-.348.829-.348h2.344v-1.377a3.59 3.59 0 00-.323-1.49 3.56 3.56 0 00-.909-1.217l-5.464-4.75a5.92 5.92 0 01-1.846-2.968L.777 28.718a4.819 4.819 0 01.54-3.714 4.732 4.732 0 011.294-1.396 4.663 4.663 0 011.733-.765 4.753 4.753 0 013.481.69 4.867 4.867 0 012.065 2.923l2.766 10.45a4.632 4.632 0 014.922-.154l8.023 4.769a10.661 10.661 0 013.81 3.91 10.839 10.839 0 011.4 5.309v9.01zm-18.453-5.886a5.93 5.93 0 011.51 2.027c.354.779.537 1.625.537 2.482v1.377h11.718v-9.01a8.425 8.425 0 00-1.088-4.13 8.287 8.287 0 00-2.964-3.04l-8.013-4.765a2.32 2.32 0 00-1.165-.311 2.293 2.293 0 00-1.228.345c-.37.229-.669.558-.863.95a2.524 2.524 0 00-.09 1.823 2.486 2.486 0 001.159 1.397l6.562 3.832c.27.157.467.417.547.721.08.305.039.63-.116.902a1.176 1.176 0 01-.712.554c-.3.082-.621.04-.89-.118l-6.563-3.832a4.83 4.83 0 01-2.142-2.51 4.91 4.91 0 01-.048-3.318L7.629 27.07a2.524 2.524 0 00-1.034-1.503 2.464 2.464 0 00-1.763-.398 2.347 2.347 0 00-1.336.825 2.403 2.403 0 00-.451 2.11L8.13 47.332a3.542 3.542 0 001.107 1.78zm17.28 8.261h-18.75v7.125h18.75z"/><path fill="none" stroke="#35b6b4" stroke-miterlimit="20" stroke-width=".2" d="M33.155 59.75c.31 0 .609.125.828.348.22.223.344.525.344.84v9.5c0 .315-.124.617-.344.84-.22.222-.517.347-.828.347H12.06c-.31 0-.609-.125-.829-.348a1.195 1.195 0 01-.343-.84v-9.5a1.2 1.2 0 01.343-.839c.22-.223.518-.348.829-.348h2.344v-1.377a3.59 3.59 0 00-.323-1.49 3.56 3.56 0 00-.909-1.217l-5.464-4.75a5.92 5.92 0 01-1.846-2.968L.777 28.718a4.819 4.819 0 01.54-3.714 4.732 4.732 0 011.294-1.396 4.663 4.663 0 011.733-.765 4.753 4.753 0 013.481.69 4.867 4.867 0 012.065 2.923l2.766 10.45a4.632 4.632 0 014.922-.154l8.023 4.769a10.661 10.661 0 013.81 3.91 10.839 10.839 0 011.4 5.309v9.01zm-18.453-5.886a5.93 5.93 0 011.51 2.027c.354.779.537 1.625.537 2.482v1.377h11.718v-9.01a8.425 8.425 0 00-1.088-4.13 8.287 8.287 0 00-2.964-3.04l-8.013-4.765a2.32 2.32 0 00-1.165-.311 2.293 2.293 0 00-1.228.345c-.37.229-.669.558-.863.95a2.524 2.524 0 00-.09 1.823 2.486 2.486 0 001.159 1.397l6.562 3.832c.27.157.467.417.547.721.08.305.039.63-.116.902a1.176 1.176 0 01-.712.554c-.3.082-.621.04-.89-.118l-6.563-3.832a4.83 4.83 0 01-2.142-2.51 4.91 4.91 0 01-.048-3.318L7.629 27.07a2.524 2.524 0 00-1.034-1.503 2.464 2.464 0 00-1.763-.398 2.347 2.347 0 00-1.336.825 2.403 2.403 0 00-.451 2.11L8.13 47.332a3.542 3.542 0 001.107 1.78zm17.28 8.261h-18.75v7.125h18.75z" clip-path="url(&quot;#b&quot;)"/><path fill="#8e2e88" d="M54.25 16.522a29.931 29.931 0 01-4.167 15.28A29.412 29.412 0 0138.74 42.716l-2.688 1.453a1.16 1.16 0 01-1.104 0l-2.688-1.453A29.415 29.415 0 0120.917 31.8a29.935 29.935 0 01-4.167-15.279V1.56a1.2 1.2 0 01.585-1.03 1.16 1.16 0 011.173 0l1.665.965a12.721 12.721 0 0012.163.34l2.63-1.338a1.16 1.16 0 011.049 0l2.65 1.342a12.724 12.724 0 0012.157-.343l1.67-.967a1.16 1.16 0 011.602.436 1.2 1.2 0 01.156.595zm-16.614 24.1a27.058 27.058 0 0010.436-10.043 27.537 27.537 0 003.834-14.057V3.606a15.049 15.049 0 01-7.1 1.99 15.035 15.035 0 01-7.19-1.627l-2.125-1.076-2.11 1.07a15.036 15.036 0 01-7.187 1.629 15.05 15.05 0 01-7.1-1.986v12.916a27.539 27.539 0 003.834 14.057A27.06 27.06 0 0033.364 40.62l2.136 1.156z"/><path fill="none" stroke="#35b6b4" stroke-miterlimit="20" stroke-width=".2" d="M54.25 16.522a29.931 29.931 0 01-4.167 15.28A29.412 29.412 0 0138.74 42.716l-2.688 1.453a1.16 1.16 0 01-1.104 0l-2.688-1.453A29.415 29.415 0 0120.917 31.8a29.935 29.935 0 01-4.167-15.279V1.56a1.2 1.2 0 01.585-1.03 1.16 1.16 0 011.173 0l1.665.965a12.721 12.721 0 0012.163.34l2.63-1.338a1.16 1.16 0 011.049 0l2.65 1.342a12.724 12.724 0 0012.157-.343l1.67-.967a1.16 1.16 0 011.602.436 1.2 1.2 0 01.156.595zm-16.614 24.1a27.058 27.058 0 0010.436-10.043 27.537 27.537 0 003.834-14.057V3.606a15.049 15.049 0 01-7.1 1.99 15.035 15.035 0 01-7.19-1.627l-2.125-1.076-2.11 1.07a15.036 15.036 0 01-7.187 1.629 15.05 15.05 0 01-7.1-1.986v12.916a27.539 27.539 0 003.834 14.057A27.06 27.06 0 0033.364 40.62l2.136 1.156z" clip-path="url(&quot;#c&quot;)"/><path fill="#8e2e88" d="M49.565 16.52a25.141 25.141 0 01-3.5 12.835 24.703 24.703 0 01-9.529 9.169l-.483.261a1.16 1.16 0 01-1.102 0l-.482-.261a24.703 24.703 0 01-9.528-9.17 25.141 25.141 0 01-3.501-12.833V8.722a1.2 1.2 0 01.434-.921 1.166 1.166 0 01.98-.24c3.911.845 7.99.323 11.573-1.48l.541-.274a1.16 1.16 0 011.055 0l.553.28c3.582 1.8 7.66 2.32 11.57 1.475a1.157 1.157 0 01.983.237 1.184 1.184 0 01.436.925zm-2.344-6.379a19.83 19.83 0 01-11.69-1.93l-.028-.015-.022.012a19.855 19.855 0 01-11.697 1.932v6.38a22.75 22.75 0 003.147 11.578 22.355 22.355 0 008.572 8.293 22.355 22.355 0 008.571-8.293 22.75 22.75 0 003.147-11.577z"/><path fill="none" stroke="#35b6b4" stroke-miterlimit="20" stroke-width=".2" d="M49.565 16.52a25.141 25.141 0 01-3.5 12.835 24.703 24.703 0 01-9.529 9.169l-.483.261a1.16 1.16 0 01-1.102 0l-.482-.261a24.703 24.703 0 01-9.528-9.17 25.141 25.141 0 01-3.501-12.833V8.722a1.2 1.2 0 01.434-.921 1.166 1.166 0 01.98-.24c3.911.845 7.99.323 11.573-1.48l.541-.274a1.16 1.16 0 011.055 0l.553.28c3.582 1.8 7.66 2.32 11.57 1.475a1.157 1.157 0 01.983.237 1.184 1.184 0 01.436.925zm-2.344-6.379a19.83 19.83 0 01-11.69-1.93l-.028-.015-.022.012a19.855 19.855 0 01-11.697 1.932v6.38a22.75 22.75 0 003.147 11.578 22.355 22.355 0 008.572 8.293 22.355 22.355 0 008.571-8.293 22.75 22.75 0 003.147-11.577z" clip-path="url(&quot;#d&quot;)"/><path fill="#8e2e88" d="M42.128 14.543l-8.973 9.092-3.659-3.707a1.164 1.164 0 00-1.643.014 1.195 1.195 0 00-.014 1.665l4.487 4.547a1.164 1.164 0 001.657 0l9.802-9.932a1.188 1.188 0 00.357-.844 1.203 1.203 0 00-.343-.85 1.17 1.17 0 00-.839-.348 1.16 1.16 0 00-.832.363z"/><path fill="none" stroke="#35b6b4" stroke-miterlimit="20" stroke-width=".2" d="M42.128 14.543v0l-8.973 9.092v0l-3.659-3.707a1.164 1.164 0 00-1.643.014 1.195 1.195 0 00-.014 1.665l4.487 4.547a1.164 1.164 0 001.657 0l9.802-9.932a1.188 1.188 0 00.357-.844 1.203 1.203 0 00-.343-.85 1.17 1.17 0 00-.839-.348 1.16 1.16 0 00-.832.363z" clip-path="url(&quot;#e&quot;)"/></svg>