<svg xmlns="http://www.w3.org/2000/svg" width="66" height="69"><path fill="#8e2e88" d="M22.619 64.356c-1.754-.156-5.52 0-5.88 0H8.975a7.754 7.754 0 01-1.547-.13c-3.353-.678-5.313-3.313-5.313-7.122v-31.46c.077-.47.129-.94.129-1.41 0-3.912-.052-11.347-.078-15.234-.051-4.148 2.812-7.017 7.093-7.017h28.164c4.282 0 7.119 2.87 7.093 7.07-.026 3.912-.077 11.32-.077 15.234 0 .6.077 1.226.18 1.8.103.47.49.73.954.704.49-.026.774-.339.877-.808.052-.287.052-.6.052-.913 0-4.305.026-12.13 0-16.435C46.476 3.73 42.762 0 37.913 0H8.743C3.894 0 .181 3.73.155 8.66c-.026 2.297-.026 5.557-.026 8.766-.052 0-.103 0-.129.026v39.783c0 2.191.542 4.2 1.934 5.948 2.012 2.504 4.72 3.339 7.764 3.339H21.51c.335 0 .696 0 1.032-.026.696-.079 1.444-.157 1.444-1.122 0-.887-.696-.94-1.367-1.017z"/><path fill="none" stroke="#8e2e88" stroke-miterlimit="20" stroke-width=".4" d="M22.619 64.356c-1.754-.156-5.52 0-5.88 0H8.975a7.754 7.754 0 01-1.547-.13c-3.353-.678-5.313-3.313-5.313-7.122v-31.46c.077-.47.129-.94.129-1.41 0-3.912-.052-11.347-.078-15.234-.051-4.148 2.812-7.017 7.093-7.017h28.164c4.282 0 7.119 2.87 7.093 7.07-.026 3.912-.077 11.32-.077 15.234 0 .6.077 1.226.18 1.8.103.47.49.73.954.704.49-.026.774-.339.877-.808.052-.287.052-.6.052-.913 0-4.305.026-12.13 0-16.435C46.476 3.73 42.762 0 37.913 0H8.743C3.894 0 .181 3.73.155 8.66c-.026 2.297-.026 5.557-.026 8.766-.052 0-.103 0-.129.026v39.783c0 2.191.542 4.2 1.934 5.948 2.012 2.504 4.72 3.339 7.764 3.339H21.51c.335 0 .696 0 1.032-.026.696-.079 1.444-.157 1.444-1.122 0-.887-.696-.94-1.367-1.017z"/><path fill="#8e2e88" d="M9.925 20.735c.361.078.774.104 1.161.104H35.82c.387 0 .774-.026 1.16-.104.568-.105.929-.496.903-1.096-.026-.548-.438-.835-.954-.887-.413-.052-.851-.052-1.29-.052H11.318c-.438 0-.851 0-1.29.052-.541.052-.876.391-.876.94-.026.521.258.938.773 1.043z"/><path fill="none" stroke="#8e2e88" stroke-miterlimit="20" stroke-width=".4" d="M9.925 20.735c.361.078.774.104 1.161.104H35.82c.387 0 .774-.026 1.16-.104.568-.105.929-.496.903-1.096-.026-.548-.438-.835-.954-.887-.413-.052-.851-.052-1.29-.052H11.318c-.438 0-.851 0-1.29.052-.541.052-.876.391-.876.94-.026.521.258.938.773 1.043z"/><path fill="#8e2e88" d="M10.241 12.553c.413.052.851.052 1.29.052h24.321c.851 0 1.96.13 1.986-1.096 0-1.278-1.16-1.017-1.986-1.017-7.634-.026-15.268 0-22.903 0-.85 0-1.728 0-2.579.026-.619 0-1.16.183-1.212.887-.077.73.413 1.043 1.083 1.148z"/><path fill="none" stroke="#8e2e88" stroke-miterlimit="20" stroke-width=".4" d="M10.241 12.553c.413.052.851.052 1.29.052h24.321c.851 0 1.96.13 1.986-1.096 0-1.278-1.16-1.017-1.986-1.017-7.634-.026-15.268 0-22.903 0-.85 0-1.728 0-2.579.026-.619 0-1.16.183-1.212.887-.077.73.413 1.043 1.083 1.148z"/><path fill="#8e2e88" d="M23.599 26.9H9.955c-.464.026-.825.26-.825 1.017 0 .73.387.887.8.913h13.72c.439-.026.852-.13.877-.939 0-.887-.438-.991-.928-.991z"/><path fill="none" stroke="#8e2e88" stroke-miterlimit="20" stroke-width=".4" d="M23.599 26.9H9.955c-.464.026-.825.26-.825 1.017 0 .73.387.887.8.913h13.72c.439-.026.852-.13.877-.939 0-.887-.438-.991-.928-.991z"/><path fill="#8e2e88" d="M16.485 36.887c.541 0 1.109-.079 1.135-.966.025-.887-.516-.991-1.084-.991h-6.19c-.593 0-1.186.052-1.186 1.017.026.861.567.94 1.135.94h6.19z"/><path fill="none" stroke="#8e2e88" stroke-miterlimit="20" stroke-width=".4" d="M16.485 36.887c.541 0 1.109-.079 1.135-.966.025-.887-.516-.991-1.084-.991h-6.19c-.593 0-1.186.052-1.186 1.017.026.861.567.94 1.135.94h6.19z"/><path fill="#8e2e88" d="M65.924 41.926v1.07c0 .626-.026 1.226-.026 1.852-.026 1.096-.593 1.878-1.547 2.165-.361.13-.722.13-1.058.13-.335.027-.619.027-.696.13-.077.131-.077.497-.077.992 0 .991.025 2.009.025 3.026v.366l-.051.078v3.026c0 3.73.026 7.591 0 11.374 0 2.06-.826 2.87-2.966 2.87H31.286c-2.115 0-2.966-.81-2.966-2.87-.026-3.835 0-7.696 0-11.452v-2.948l-.051-.078v-.366c.025-.991.025-2.008.025-3.026 0-.522 0-.887-.077-.991-.077-.104-.361-.13-.722-.13-.31.026-.696 0-1.058-.131-.954-.287-1.495-1.07-1.521-2.14-.026-.625-.026-1.251-.026-1.877v-1.018c0-1.148 0-2.165.026-3.182.026-1.253.928-2.192 2.218-2.244.464-.026.928-.026 1.264-.026h.773c.104 0 .155-.026.18-.026 0-.052 0-.157-.128-.365-.67-1.252-.877-2.53-.645-3.835.387-2.14 1.96-3.783 4.075-4.278a5.306 5.306 0 012.012-.157c3.404.444 5.751 2.661 7.402 4.54.052.052.077.104.129.156.026.026.052.078.077.104.104.13.207.235.284.365.155.261.335.496.542.627.051 0 .154-.053.283-.13.155-.105.31-.184.516-.288l.155-.078h.026a3.403 3.403 0 011.264-.235h.154c.439 0 .851.078 1.264.235h.026l.155.078c.206.078.36.183.515.287.104.078.207.13.284.13.232-.156.387-.39.568-.626.103-.13.18-.26.283-.365.026-.026.052-.078.078-.104.051-.052.077-.104.129-.157 1.65-1.878 3.971-4.095 7.402-4.539a5.267 5.267 0 012.011.157c2.115.495 3.689 2.139 4.075 4.278.258 1.304.026 2.583-.644 3.835-.103.235-.13.339-.13.365.027 0 .078.026.207.026h.774c.36 0 .8 0 1.264.026 1.29.052 2.192.991 2.218 2.244.025 1.017.025 2.06-.052 3.13zm-31.362 3.47h6.911c.233-.053.388-.079.388-.626-.026-1.8-.026-3.73 0-5.922 0-.496-.155-.548-.465-.574-4.487.026-9.078 0-13.643.026-.67 0-.929.26-.929.965v5.087c.026.861.18 1.044 1.058 1.044h6.68zm7.299 2.556c0-.574-.13-.678-.284-.73-.026-.026-.052-.026-.077-.026-.026-.026-.078-.026-.13-.026v-.261l-.025.26h-1.083c-3.095.027-6.19.027-9.26 0h-.051c-.335-.026-.516.027-.619.131-.077.104-.129.287-.129.626.026 4.383.026 8.817.026 13.122v5.113c0 .991.129 1.122 1.057 1.122h7.144c.387-.026.852-.026 1.342-.026.464 0 .98 0 1.496.026.206 0 .36-.026.464-.079.051-.052.129-.156.129-.547v-12c0-2.192-.026-4.487 0-6.705zm.051-12.626c-1.702-2.478-3.74-4.852-7.015-5.53a4.027 4.027 0 00-2.09.078c-.334.13-.67.313-.98.574-1.727 1.435-1.882 3.574-.412 5.582.232.287.464.444.774.47h9.027c.361-.026.645-.209.774-.496.103-.208.077-.443-.078-.678zm1.857 1.122a.277.277 0 00.18.078h3.07c.077-.026.155-.026.18-.078.026-.026.052-.105 0-.313-.154-.705-.98-1.409-1.702-1.435-.696 0-1.547.704-1.702 1.435-.051.208-.026.287-.026.313zm3.405 12.391v-9.626c0-.365 0-.73-.078-.835-.051-.078-.36-.104-.644-.104h-2.064c-.284.026-.593.026-.645.104-.077.105-.077.47-.077.835v27.183c0 .365 0 .73.078.782.077.079.412.079.825.079h1.754c.412 0 .747 0 .825-.079.077-.052.077-.417.077-.782zm1.805-12.809a.93.93 0 00.774.496h9.053c.31-.026.515-.156.748-.47 1.495-2.008 1.315-4.147-.413-5.582a3.869 3.869 0 00-1.006-.574 3.386 3.386 0 00-1.16-.183c-.284 0-.594.053-.903.105-3.276.678-5.313 3.052-7.016 5.53a.648.648 0 00-.077.678zM60.714 47.9c0-.34-.026-.522-.129-.626-.103-.078-.284-.13-.619-.13h-.026c-3.069.026-6.19.026-9.284 0h-1.084l-.051-.261.025.26c-.051 0-.077.027-.129.027-.025 0-.051.026-.077.026-.155.052-.284.156-.284.73.026 2.244.026 4.54.026 6.73v5.01c.026 2.295.026 4.669 0 6.99 0 .392.078.496.155.548.077.026.232.052.438.052a52.056 52.056 0 012.863 0h7.144c.929 0 1.058-.13 1.058-1.121v-5.061c0-4.304 0-8.765-.026-13.174zm3.43-8.635c0-.704-.258-.965-.928-.965-4.565-.026-9.104-.026-13.67-.026-.309.026-.438.078-.438.574.026 2.191.026 4.122 0 5.922-.026.547.129.6.387.626h13.591c.878 0 1.058-.157 1.058-1.044v-5.087z"/><path fill="none" stroke="#8e2e88" stroke-miterlimit="20" stroke-width=".4" d="M65.924 41.926v1.07c0 .626-.026 1.226-.026 1.852-.026 1.096-.593 1.878-1.547 2.165-.361.13-.722.13-1.058.13-.335.027-.619.027-.696.13-.077.131-.077.497-.077.992 0 .991.025 2.009.025 3.026v.366l-.051.078v3.026c0 3.73.026 7.591 0 11.374 0 2.06-.826 2.87-2.966 2.87H31.286c-2.115 0-2.966-.81-2.966-2.87-.026-3.835 0-7.696 0-11.452v-2.948l-.051-.078v-.366c.025-.991.025-2.008.025-3.026 0-.522 0-.887-.077-.991-.077-.104-.361-.13-.722-.13-.31.026-.696 0-1.058-.131-.954-.287-1.495-1.07-1.521-2.14-.026-.625-.026-1.251-.026-1.877v-1.018c0-1.148 0-2.165.026-3.182.026-1.253.928-2.192 2.218-2.244.464-.026.928-.026 1.264-.026h.773c.104 0 .155-.026.18-.026 0-.052 0-.157-.128-.365-.67-1.252-.877-2.53-.645-3.835.387-2.14 1.96-3.783 4.075-4.278a5.306 5.306 0 012.012-.157c3.404.444 5.751 2.661 7.402 4.54.052.052.077.104.129.156.026.026.052.078.077.104.104.13.207.235.284.365.155.261.335.496.542.627.051 0 .154-.053.283-.13.155-.105.31-.184.516-.288l.155-.078h.026a3.403 3.403 0 011.264-.235h.154c.439 0 .851.078 1.264.235h.026l.155.078c.206.078.36.183.515.287.104.078.207.13.284.13.232-.156.387-.39.568-.626.103-.13.18-.26.283-.365.026-.026.052-.078.078-.104.051-.052.077-.104.129-.157 1.65-1.878 3.971-4.095 7.402-4.539a5.267 5.267 0 012.011.157c2.115.495 3.689 2.139 4.075 4.278.258 1.304.026 2.583-.644 3.835-.103.235-.13.339-.13.365.027 0 .078.026.207.026h.774c.36 0 .8 0 1.264.026 1.29.052 2.192.991 2.218 2.244.025 1.017.025 2.06-.052 3.13zm-31.362 3.47h6.911c.233-.053.388-.079.388-.626-.026-1.8-.026-3.73 0-5.922 0-.496-.155-.548-.465-.574-4.487.026-9.078 0-13.643.026-.67 0-.929.26-.929.965v5.087c.026.861.18 1.044 1.058 1.044h6.68zm7.299 2.556c0-.574-.13-.678-.284-.73-.026-.026-.052-.026-.077-.026-.026-.026-.078-.026-.13-.026v-.261l-.025.26h-1.083c-3.095.027-6.19.027-9.26 0h-.051c-.335-.026-.516.027-.619.131-.077.104-.129.287-.129.626.026 4.383.026 8.817.026 13.122v5.113c0 .991.129 1.122 1.057 1.122h7.144c.387-.026.852-.026 1.342-.026.464 0 .98 0 1.496.026.206 0 .36-.026.464-.079.051-.052.129-.156.129-.547v-12c0-2.192-.026-4.487 0-6.705zm.051-12.626c-1.702-2.478-3.74-4.852-7.015-5.53a4.027 4.027 0 00-2.09.078c-.334.13-.67.313-.98.574-1.727 1.435-1.882 3.574-.412 5.582.232.287.464.444.774.47h9.027c.361-.026.645-.209.774-.496.103-.208.077-.443-.078-.678zm1.857 1.122a.277.277 0 00.18.078h3.07c.077-.026.155-.026.18-.078.026-.026.052-.105 0-.313-.154-.705-.98-1.409-1.702-1.435-.696 0-1.547.704-1.702 1.435-.051.208-.026.287-.026.313zm3.405 12.391v-9.626c0-.365 0-.73-.078-.835-.051-.078-.36-.104-.644-.104h-2.064c-.284.026-.593.026-.645.104-.077.105-.077.47-.077.835v27.183c0 .365 0 .73.078.782.077.079.412.079.825.079h1.754c.412 0 .747 0 .825-.079.077-.052.077-.417.077-.782zm1.805-12.809a.93.93 0 00.774.496h9.053c.31-.026.515-.156.748-.47 1.495-2.008 1.315-4.147-.413-5.582a3.869 3.869 0 00-1.006-.574 3.386 3.386 0 00-1.16-.183c-.284 0-.594.053-.903.105-3.276.678-5.313 3.052-7.016 5.53a.648.648 0 00-.077.678zM60.714 47.9c0-.34-.026-.522-.129-.626-.103-.078-.284-.13-.619-.13h-.026c-3.069.026-6.19.026-9.284 0h-1.084l-.051-.261.025.26c-.051 0-.077.027-.129.027-.025 0-.051.026-.077.026-.155.052-.284.156-.284.73.026 2.244.026 4.54.026 6.73v5.01c.026 2.295.026 4.669 0 6.99 0 .392.078.496.155.548.077.026.232.052.438.052a52.056 52.056 0 012.863 0h7.144c.929 0 1.058-.13 1.058-1.121v-5.061c0-4.304 0-8.765-.026-13.174zm3.43-8.635c0-.704-.258-.965-.928-.965-4.565-.026-9.104-.026-13.67-.026-.309.026-.438.078-.438.574.026 2.191.026 4.122 0 5.922-.026.547.129.6.387.626h13.591c.878 0 1.058-.157 1.058-1.044v-5.087z"/></svg>