<svg viewBox="0 0 52 52" xmlns="http://www.w3.org/2000/svg" xmlns:xlink="http://www.w3.org/1999/xlink"><style>:root&gt;svg{display:none}:root&gt;svg:target{display:block}</style><svg viewBox="-20.31 -20.31 105.63 105.63" id="2-layers" xmlns="http://www.w3.org/2000/svg"><path fill="#8e2e88" d="M64.704 52.481a.954.954 0 010 1.348L53.856 64.677a.95.95 0 01-1.348 0L39.804 51.973a.953.953 0 011.347-1.347l12.031 12.03 9.501-9.5-4.418-4.419-4.006 4.006a.95.95 0 01-1.347 0 .953.953 0 010-1.347l4.006-4.006-2.72-2.72-2.659 2.659a.95.95 0 01-1.347 0 .953.953 0 010-1.347l2.658-2.66-2.72-2.72-4.005 4.007a.95.95 0 01-1.348 0 .953.953 0 010-1.348l4.006-4.005-2.72-2.72-2.659 2.658a.95.95 0 01-1.347 0 .953.953 0 010-1.347l2.658-2.659-2.147-2.147-4.272 4.272-5.228 5.229 5.312 5.312a.953.953 0 01-1.347 1.347L31.72 43.89 20.96 54.65l-5.003 5.004-.002.001-4.142 4.142A4.083 4.083 0 018.907 65a4.083 4.083 0 01-2.906-1.204L1.214 59.01A4.082 4.082 0 01.01 56.103c0-1.098.428-2.13 1.204-2.906L21.12 33.29 7.181 19.349a.953.953 0 111.347-1.347l13.941 13.94 9.5-9.5-2.174-2.175-4.006 4.005a.95.95 0 01-1.347 0 .953.953 0 010-1.347l4.006-4.006-2.72-2.72-2.66 2.66a.95.95 0 01-1.347 0 .952.952 0 010-1.348l2.66-2.659-2.72-2.72-4.006 4.006a.95.95 0 01-1.348 0 .953.953 0 010-1.347l4.006-4.006-2.72-2.72-2.659 2.659a.95.95 0 01-1.347 0 .952.952 0 010-1.347l2.658-2.659L11.827 2.3l-9.5 9.5 3.492 3.493A.953.953 0 114.47 16.64L.306 12.474a.953.953 0 010-1.347L11.154.28a.953.953 0 011.347 0l9.831 9.831.002.002 4.066 4.066.001.001 4.067 4.067 2.848 2.849 4.453-4.453a.953.953 0 011.347 1.347L12.383 44.723l7.904 7.905 10.76-10.76 5.97-5.97 20.479-20.48-7.905-7.904-7.777 7.777a.953.953 0 11-1.347-1.348l8.45-8.45a.946.946 0 01.359-.224l.013-.006 7.618-2.69L63.575.22a.953.953 0 011.216 1.216l-2.354 6.666v.001l-2.69 7.618c0 .004-.003.008-.004.012a.947.947 0 01-.225.36l-15.601 15.6zM58.967 3.867l2.176 2.176L62.33 2.68zm-.513 9.794l1.986-5.627-3.464-3.464-5.627 1.987zm-44.52 45.32L6.03 51.076l-3.47 3.469a2.19 2.19 0 00-.646 1.558c0 .589.23 1.142.646 1.559l4.788 4.787c.416.417.97.646 1.558.646a2.19 2.19 0 001.559-.646zm5.006-5.006l-7.905-7.905-3.658 3.658 7.905 7.905z"/><path fill="none" stroke="#8e2e88" stroke-miterlimit="20" stroke-width=".3" d="M64.704 52.481a.954.954 0 010 1.348L53.856 64.677a.95.95 0 01-1.348 0L39.804 51.973a.953.953 0 011.347-1.347l12.031 12.03 9.501-9.5-4.418-4.419-4.006 4.006a.95.95 0 01-1.347 0 .953.953 0 010-1.347l4.006-4.006-2.72-2.72-2.659 2.659a.95.95 0 01-1.347 0 .953.953 0 010-1.347l2.658-2.66-2.72-2.72-4.005 4.007a.95.95 0 01-1.348 0 .953.953 0 010-1.348l4.006-4.005-2.72-2.72-2.659 2.658a.95.95 0 01-1.347 0 .953.953 0 010-1.347l2.658-2.659-2.147-2.147-4.272 4.272-5.228 5.229 5.312 5.312a.953.953 0 01-1.347 1.347L31.72 43.89 20.96 54.65l-5.003 5.004-.002.001-4.142 4.142A4.083 4.083 0 018.907 65a4.083 4.083 0 01-2.906-1.204L1.214 59.01A4.082 4.082 0 01.01 56.103c0-1.098.428-2.13 1.204-2.906L21.12 33.29 7.181 19.349a.953.953 0 111.347-1.347l13.941 13.94 9.5-9.5-2.174-2.175-4.006 4.005a.95.95 0 01-1.347 0 .953.953 0 010-1.347l4.006-4.006-2.72-2.72-2.66 2.66a.95.95 0 01-1.347 0 .952.952 0 010-1.348l2.66-2.659-2.72-2.72-4.006 4.006a.95.95 0 01-1.348 0 .953.953 0 010-1.347l4.006-4.006-2.72-2.72-2.659 2.659a.95.95 0 01-1.347 0 .952.952 0 010-1.347l2.658-2.659L11.827 2.3l-9.5 9.5 3.492 3.493A.953.953 0 114.47 16.64L.306 12.474a.953.953 0 010-1.347L11.154.28a.953.953 0 011.347 0l9.831 9.831.002.002s0 0 0 0l4.066 4.066s0 0 0 0l.001.001 4.067 4.067s0 0 0 0l2.848 2.849 4.453-4.453a.953.953 0 011.347 1.347L12.383 44.723l7.904 7.905 10.76-10.76s0 0 0 0l5.97-5.97 20.479-20.48-7.905-7.904-7.777 7.777a.953.953 0 11-1.347-1.348l8.45-8.45a.946.946 0 01.359-.224l.013-.006 7.618-2.69s0 0 0 0L63.575.22a.953.953 0 011.216 1.216l-2.354 6.666v.001l-2.69 7.618c0 .004-.003.008-.004.012a.947.947 0 01-.225.36l-15.601 15.6zM58.967 3.867l2.176 2.176L62.33 2.68zm-.513 9.794l1.986-5.627-3.464-3.464-5.627 1.987zm-44.52 45.32L6.03 51.076l-3.47 3.469a2.19 2.19 0 00-.646 1.558c0 .589.23 1.142.646 1.559l4.788 4.787c.416.417.97.646 1.558.646a2.19 2.19 0 001.559-.646zm5.006-5.006l-7.905-7.905-3.658 3.658 7.905 7.905z"/></svg><svg viewBox="-20.94 -20.94 108.88 108.88" id="25-layers" xmlns="http://www.w3.org/2000/svg"><path fill="#8e2e88" d="M67 25.94v6.484H32.42V25.94zm-2.16 2.161H34.58v2.162h30.26zm-30.26-4.329h2.161v-1.634l12.968-9.97 12.968 9.97v1.634h2.161v-2.688L49.71 9.44 34.58 21.084zm27.017 37.734v3.337h3.242V61.6H67v5.403H0V61.6h2.161v3.242h3.242v-3.337C2.337 60.98 0 58.318 0 55.117c0-3.026 1.04-6.011 2.945-8.361l.945-1.19c.392-.499.96-.783 1.513-1.053 2.661-1.283 5.214 3.04 5.214 3.04a13.357 13.357 0 012.35 7.564 6.478 6.478 0 01-5.402 6.39v3.336h6.524V54.036h8.645v10.807h9.726v-3.35c-3.066-.527-5.403-3.188-5.403-6.39 0-3.039 1.04-6.01 2.93-8.374l.947-1.19a3.312 3.312 0 012.593-1.242c1.013 0 1.959.46 2.594 1.256l.945 1.19a13.474 13.474 0 012.931 8.374 6.478 6.478 0 01-5.403 6.39v3.336h10.807V54.036h8.645v1.068c0-1.864.365-3.729 1.148-5.404.25-.533.57-1.082.91-1.607h.67v-.977a28.501 28.501 0 011.594-2.008 3.296 3.296 0 014.755.445l.946 1.19A13.474 13.474 0 0167 55.116c0 3.202-2.337 5.863-5.403 6.39zm-7.551 3.337h5.403v-3.35c-3.066-.527-5.403-3.188-5.403-6.39zM7.565 43.23h3.052v3.526L8.915 45.39a3.3 3.3 0 00-1.35-.878zm0 10.806v5.255c1.864-.486 3.241-2.161 3.241-4.174 0-2.54-.878-5.038-2.458-7.024l-.946-1.189a1.194 1.194 0 00-.918-.432c-.365 0-.689.149-.919.432l-.945 1.189a11.338 11.338 0 00-2.459 7.024c0 2.013 1.378 3.688 3.242 4.174v-5.255zm12.967 2.162H16.21v8.645h4.322zm14.049-2.162v5.255c1.864-.486 3.242-2.161 3.242-4.174 0-2.54-.865-5.038-2.459-7.024l-.946-1.189a1.194 1.194 0 00-.918-.432c-.365 0-.689.149-.919.432l-.945 1.189a11.337 11.337 0 00-2.459 7.024c0 2.013 1.378 3.688 3.242 4.174v-5.255zm17.29 2.162h-4.323v8.645h4.323zm4.903-9.082a22.93 22.93 0 00-.67.977h-2.072V45.39h2.742zm4.823 6.92v5.255c1.864-.486 3.242-2.161 3.242-4.174 0-2.54-.865-5.038-2.459-7.024l-.945-1.189a1.194 1.194 0 00-.919-.432c-.365 0-.689.149-.918.432l-.946 1.189a11.338 11.338 0 00-2.458 7.024c0 2.013 1.377 3.688 3.241 4.174v-5.255zM36.741 34.58H34.58v8.645h2.161zm28.1 0H62.68v8.645h2.161zm-7.99 4.981H54.03V36.74h2.821zm-10.8 0H43.23V36.74h2.821zm-27.02-19.45H16.21V17.29h2.821zm8.64 0H24.85V17.29h2.821zm-17.29 0H7.56V17.29h2.821zm8.65 8.65H16.21V25.94h2.821zm8.64 0H24.85V25.94h2.821zm-17.29 0H7.56V25.94h2.821zm8.65 8.64H16.21V34.58h2.821zm8.64 0H24.85V34.58h2.821zM7.56 34.58h2.821v2.821H7.56z"/><path fill="#8e2e88" d="M16.21 43.23h2.821v2.821H16.21zm8.64 0h2.821v2.821H24.85zm18.38 2.16h2.821v2.821H43.23zM2.161 12.971H32.42v5.404h2.162V10.81H0v35.661h2.161zm3.24-4.326H3.24V4.323h2.161V0h23.774v4.323h2.162v4.322h-2.161V6.484H5.4zm2.162-4.322h19.451V2.16H7.563z"/></svg><svg viewBox="-20.62 -20.62 107.25 107.25" id="5-layers" xmlns="http://www.w3.org/2000/svg"><path fill="#8e2e88" d="M63.57 8.998a7.665 7.665 0 012.245 5.41v43.976a7.438 7.438 0 01-7.427 7.431H.19v-52.5h17.5v2.187H2.377V35.16a27.312 27.312 0 0012.424 15.915l.547-2.034a3.281 3.281 0 01-1.319-3.53l7.184-26.789a7.636 7.636 0 011.946-10.586v-3.57a4.375 4.375 0 118.75 0v3.57a7.636 7.636 0 011.945 10.586l7.178 26.784a3.29 3.29 0 01-1.313 3.536l.903 3.366a1.095 1.095 0 11-2.114.564l-.903-3.373a3.195 3.195 0 01-2.904-2.406l-3.6-13.422a19.57 19.57 0 01-2.474.294v1.126a1.093 1.093 0 11-2.187 0v-1.125a19.574 19.574 0 01-2.474-.297l-3.6 13.427a3.2 3.2 0 01-2.903 2.406l-.68 2.533a27.169 27.169 0 0011.845 2.743 1.093 1.093 0 110 2.188 29.64 29.64 0 01-26.25-16.06v22.622h56.01a5.25 5.25 0 005.24-5.239v-.23a5.468 5.468 0 10-10.938 0 1.093 1.093 0 11-2.187 0V15.503H37.378v-2.187H50.59a7.656 7.656 0 017.569-6.563c2.03.003 3.976.81 5.411 2.246zM28.628 31.843a17.4 17.4 0 001.897-.219l-2.568-9.579c-.141.008-.28.022-.423.022-.143 0-.282-.014-.423-.022l-2.569 9.58a17.4 17.4 0 001.898.218v-1.028a1.093 1.093 0 112.187 0zm3.454-11.29a7.636 7.636 0 01-1.977 1.058l6.718 25.022a1.075 1.075 0 00.502.665c.25.144.547.183.826.11h.006a1.104 1.104 0 00.766-1.34zM25.346 7.081a7.577 7.577 0 014.375 0V4.565a2.187 2.187 0 10-4.375 0zm-1.677 3.463a5.475 5.475 0 00-1.604 3.865 5.469 5.469 0 105.469-5.469 5.475 5.475 0 00-3.865 1.604zm-7.526 35.528a1.104 1.104 0 00.775 1.34h.01a1.094 1.094 0 001.323-.774l6.711-25.027a7.636 7.636 0 01-1.976-1.058zm47.484-31.663a5.468 5.468 0 10-10.937 0v38.396a7.648 7.648 0 0110.938 0z"/><path fill="#8e2e88" d="M25.211 16.721a3.281 3.281 0 114.64-4.64 3.281 3.281 0 01-4.64 4.64zm1.547-3.093a1.094 1.094 0 101.547 1.547 1.094 1.094 0 00-1.547-1.547z"/></svg><svg viewBox="-22.5 -22.5 117 111" id="6-layers" xmlns="http://www.w3.org/2000/svg"><defs><clipPath id="da"><path fill="#fff" d="M35.916 66H4.875c-3.057 0-5.07-1.996-4.871-4.804.05-.69.298-1.306.62-1.922 10.44-18.92 20.878-37.84 31.316-56.736C32.835.936 34.127 0 35.966 0c1.89 0 3.181.96 4.076 2.587 10.414 18.871 20.852 37.718 31.24 56.589C73.198 62.625 71.11 66 67.059 66c-8.823.025-17.646 0-26.47 0h-4.671zm.05-2.538H66.81c.298 0 .622.025.92-.024 1.292-.148 2.038-1.38 1.54-2.587-.124-.296-.298-.542-.447-.813a71406.266 71406.266 0 00-22.169-40.157 2560.702 2560.702 0 00-8.798-16.013c-.422-.74-.92-1.33-1.84-1.33-.919 0-1.49.542-1.863 1.305-.05.074-.1.173-.124.247C23.714 22.764 13.375 41.462 3.06 60.16c-1.093 1.996-.323 3.301 1.989 3.301h30.917z"/></clipPath><clipPath id="db"><path fill="#fff" d="M35.988 60.925H9.072c-1.64-.025-2.138-.838-1.367-2.242 2.212-4.09 4.449-8.18 6.66-12.269L34.497 9.386a6.47 6.47 0 00.223-.419c.274-.517.597-.911 1.268-.936.696-.025 1.069.394 1.367.936 1.814 3.35 3.653 6.726 5.468 10.076L64.22 58.436c.15.271.298.542.398.838.273.764-.199 1.503-1.02 1.626-.347.05-.67.025-1.018.025H35.988zm.025-48.977c-.174.271-.249.37-.298.468-8.202 15.077-16.379 30.155-24.58 45.232-.423.764-.1.764.521.764h12.402c1.765 0 1.765 0 1.765-1.75V32.47c0-1.33.373-1.798 1.54-1.823 3.605-.025 7.208-.099 10.812.025 5.667.197 10.19 4.508 10.513 9.83.348 5.666-3.355 10.42-8.922 11.43-1.392.247-2.784.173-4.176.148-.696-.024-.894.222-.87.912.05 1.478.075 2.956 0 4.434-.05.813.2 1.035 1.02 1.035 8.126-.025 16.278-.025 24.405-.025 1.119 0 1.144 0 .597-.985a61388.743 61388.743 0 01-22.368-41.192 202.034 202.034 0 00-2.361-4.31zm-7.655 33.825c0 3.942.025 7.884 0 11.826 0 .665.199.862.845.837.596-.049 1.168 0 1.765 0 1.217 0 1.217 0 1.217-1.182 0-2.07-.025-4.114 0-6.184.025-1.035.448-1.453 1.491-1.478 1.367-.025 2.734 0 4.101 0 4.673-.025 8.351-3.597 8.4-8.13.05-4.607-3.653-8.253-8.425-8.278-2.783-.024-5.592.025-8.375-.024-.795-.025-1.044.148-1.044.985.05 3.893.025 7.76.025 11.629z"/></clipPath><clipPath id="dc"><path fill="#fff" d="M35.941 45.777c-.77 0-1.54.025-2.336 0-.944-.025-1.392-.419-1.416-1.33-.025-2.02-.025-4.065 0-6.085 0-.912.447-1.355 1.391-1.38 1.541-.025 3.107-.05 4.648.05 2.46.147 4.175 2.118 4.1 4.582-.074 2.29-1.963 4.114-4.349 4.163-.67.025-1.366 0-2.038 0zm.647-6.282c-.373 0-.746.025-1.119 0-.546-.05-.795.098-.77.69.05.837.025 1.65 0 2.488 0 .32-.025.64.447.616.994-.025 1.988.05 2.958-.05.994-.098 1.64-.862 1.665-1.798.025-.985-.621-1.774-1.64-1.921-.497-.074-1.02 0-1.541 0z"/></clipPath></defs><path fill="#8e2e88" d="M35.916 66H4.875c-3.057 0-5.07-1.996-4.871-4.804.05-.69.298-1.306.62-1.922 10.44-18.92 20.878-37.84 31.316-56.736C32.835.936 34.127 0 35.966 0c1.89 0 3.181.96 4.076 2.587 10.414 18.871 20.852 37.718 31.24 56.589C73.198 62.625 71.11 66 67.059 66c-8.823.025-17.646 0-26.47 0h-4.671zm.05-2.538H66.81c.298 0 .622.025.92-.024 1.292-.148 2.038-1.38 1.54-2.587-.124-.296-.298-.542-.447-.813a71406.266 71406.266 0 00-22.169-40.157 2560.702 2560.702 0 00-8.798-16.013c-.422-.74-.92-1.33-1.84-1.33-.919 0-1.49.542-1.863 1.305-.05.074-.1.173-.124.247C23.714 22.764 13.375 41.462 3.06 60.16c-1.093 1.996-.323 3.301 1.989 3.301h30.917z"/><path fill="none" stroke="#fff" stroke-miterlimit="20" stroke-width=".2" d="M35.916 66H4.875c-3.057 0-5.07-1.996-4.871-4.804.05-.69.298-1.306.62-1.922 10.44-18.92 20.878-37.84 31.316-56.736C32.835.936 34.127 0 35.966 0c1.89 0 3.181.96 4.076 2.587 10.414 18.871 20.852 37.718 31.24 56.589C73.198 62.625 71.11 66 67.059 66c-8.823.025-17.646 0-26.47 0h-4.671zm.05-2.538H66.81c.298 0 .622.025.92-.024 1.292-.148 2.038-1.38 1.54-2.587-.124-.296-.298-.542-.447-.813a71406.266 71406.266 0 00-22.169-40.157 2560.702 2560.702 0 00-8.798-16.013c-.422-.74-.92-1.33-1.84-1.33-.919 0-1.49.542-1.863 1.305-.05.074-.1.173-.124.247C23.714 22.764 13.375 41.462 3.06 60.16c-1.093 1.996-.323 3.301 1.989 3.301h30.917z" clip-path="url(#da)"/><path fill="#8e2e88" d="M35.988 60.925H9.072c-1.64-.025-2.138-.838-1.367-2.242 2.212-4.09 4.449-8.18 6.66-12.269L34.497 9.386a6.47 6.47 0 00.223-.419c.274-.517.597-.911 1.268-.936.696-.025 1.069.394 1.367.936 1.814 3.35 3.653 6.726 5.468 10.076L64.22 58.436c.15.271.298.542.398.838.273.764-.199 1.503-1.02 1.626-.347.05-.67.025-1.018.025H35.988zm.025-48.977c-.174.271-.249.37-.298.468-8.202 15.077-16.379 30.155-24.58 45.232-.423.764-.1.764.521.764h12.402c1.765 0 1.765 0 1.765-1.75V32.47c0-1.33.373-1.798 1.54-1.823 3.605-.025 7.208-.099 10.812.025 5.667.197 10.19 4.508 10.513 9.83.348 5.666-3.355 10.42-8.922 11.43-1.392.247-2.784.173-4.176.148-.696-.024-.894.222-.87.912.05 1.478.075 2.956 0 4.434-.05.813.2 1.035 1.02 1.035 8.126-.025 16.278-.025 24.405-.025 1.119 0 1.144 0 .597-.985a61388.743 61388.743 0 01-22.368-41.192 202.034 202.034 0 00-2.361-4.31zm-7.655 33.825c0 3.942.025 7.884 0 11.826 0 .665.199.862.845.837.596-.049 1.168 0 1.765 0 1.217 0 1.217 0 1.217-1.182 0-2.07-.025-4.114 0-6.184.025-1.035.448-1.453 1.491-1.478 1.367-.025 2.734 0 4.101 0 4.673-.025 8.351-3.597 8.4-8.13.05-4.607-3.653-8.253-8.425-8.278-2.783-.024-5.592.025-8.375-.024-.795-.025-1.044.148-1.044.985.05 3.893.025 7.76.025 11.629z"/><path fill="none" stroke="#fff" stroke-miterlimit="20" stroke-width=".2" d="M35.988 60.925H9.072c-1.64-.025-2.138-.838-1.367-2.242 2.212-4.09 4.449-8.18 6.66-12.269L34.497 9.386a6.47 6.47 0 00.223-.419c.274-.517.597-.911 1.268-.936.696-.025 1.069.394 1.367.936 1.814 3.35 3.653 6.726 5.468 10.076L64.22 58.436c.15.271.298.542.398.838.273.764-.199 1.503-1.02 1.626-.347.05-.67.025-1.018.025H35.988zm.025-48.977c-.174.271-.249.37-.298.468-8.202 15.077-16.379 30.155-24.58 45.232-.423.764-.1.764.521.764h12.402c1.765 0 1.765 0 1.765-1.75V32.47c0-1.33.373-1.798 1.54-1.823 3.605-.025 7.208-.099 10.812.025 5.667.197 10.19 4.508 10.513 9.83.348 5.666-3.355 10.42-8.922 11.43-1.392.247-2.784.173-4.176.148-.696-.024-.894.222-.87.912.05 1.478.075 2.956 0 4.434-.05.813.2 1.035 1.02 1.035 8.126-.025 16.278-.025 24.405-.025 1.119 0 1.144 0 .597-.985a61388.743 61388.743 0 01-22.368-41.192 202.034 202.034 0 00-2.361-4.31zm-7.655 33.825c0 3.942.025 7.884 0 11.826 0 .665.199.862.845.837.596-.049 1.168 0 1.765 0 1.217 0 1.217 0 1.217-1.182 0-2.07-.025-4.114 0-6.184.025-1.035.448-1.453 1.491-1.478 1.367-.025 2.734 0 4.101 0 4.673-.025 8.351-3.597 8.4-8.13.05-4.607-3.653-8.253-8.425-8.278-2.783-.024-5.592.025-8.375-.024-.795-.025-1.044.148-1.044.985.05 3.893.025 7.76.025 11.629z" clip-path="url(#db)"/><path fill="#8e2e88" d="M35.941 45.777c-.77 0-1.54.025-2.336 0-.944-.025-1.392-.419-1.416-1.33-.025-2.02-.025-4.065 0-6.085 0-.912.447-1.355 1.391-1.38 1.541-.025 3.107-.05 4.648.05 2.46.147 4.175 2.118 4.1 4.582-.074 2.29-1.963 4.114-4.349 4.163-.67.025-1.366 0-2.038 0zm.647-6.282c-.373 0-.746.025-1.119 0-.546-.05-.795.098-.77.69.05.837.025 1.65 0 2.488 0 .32-.025.64.447.616.994-.025 1.988.05 2.958-.05.994-.098 1.64-.862 1.665-1.798.025-.985-.621-1.774-1.64-1.921-.497-.074-1.02 0-1.541 0z"/><path fill="none" stroke="#fff" stroke-miterlimit="20" stroke-width=".2" d="M35.941 45.777c-.77 0-1.54.025-2.336 0-.944-.025-1.392-.419-1.416-1.33-.025-2.02-.025-4.065 0-6.085 0-.912.447-1.355 1.391-1.38 1.541-.025 3.107-.05 4.648.05 2.46.147 4.175 2.118 4.1 4.582-.074 2.29-1.963 4.114-4.349 4.163-.67.025-1.366 0-2.038 0zm.647-6.282c-.373 0-.746.025-1.119 0-.546-.05-.795.098-.77.69.05.837.025 1.65 0 2.488 0 .32-.025.64.447.616.994-.025 1.988.05 2.958-.05.994-.098 1.64-.862 1.665-1.798.025-.985-.621-1.774-1.64-1.921-.497-.074-1.02 0-1.541 0z" clip-path="url(#dc)"/></svg><svg viewBox="-22.5 -22.5 116 117" id="8-layers" xmlns="http://www.w3.org/2000/svg"><defs><clipPath id="ea"><path fill="#fff" d="M69.317 24.498a4.809 4.809 0 01.898 4.221L65.13 47.947a5.93 5.93 0 01-1.847 2.969l-5.464 4.75a3.56 3.56 0 00-.906 1.216 3.603 3.603 0 00-.321 1.49v1.377h2.344c.31 0 .609.125.828.347.22.223.343.525.343.84v9.5c0 .315-.123.617-.343.84-.22.223-.518.348-.828.348H37.842c-.31 0-.609-.125-.829-.348a1.196 1.196 0 01-.343-.84v-9.5c0-.315.123-.617.343-.84.22-.222.518-.347.829-.347h2.344v-9.011a10.838 10.838 0 011.402-5.31 10.661 10.661 0 013.814-3.908l8.013-4.763a4.627 4.627 0 014.922.15l2.768-10.45a4.86 4.86 0 012.062-2.924 4.746 4.746 0 013.48-.69 4.698 4.698 0 012.67 1.655zM57.764 62.124h-18.75v7.125h18.75zm10.188-34.021A2.403 2.403 0 0067.498 26a2.347 2.347 0 00-1.33-.822 2.46 2.46 0 00-1.765.397 2.52 2.52 0 00-1.033 1.503L60.146 39.25a4.91 4.91 0 01-.048 3.318 4.83 4.83 0 01-2.142 2.509l-6.563 3.832a1.164 1.164 0 01-1.602-.436 1.198 1.198 0 01.43-1.623l6.563-3.832c.546-.3.96-.8 1.158-1.397a2.525 2.525 0 00-.09-1.822 2.333 2.333 0 00-.862-.96 2.29 2.29 0 00-1.233-.347c-.41 0-.815.11-1.171.317l-8.004 4.759a8.291 8.291 0 00-2.964 3.04 8.43 8.43 0 00-1.089 4.13v9.01h11.72v-1.377c0-.856.182-1.702.535-2.48a5.932 5.932 0 011.51-2.026l5.465-4.75a3.55 3.55 0 001.107-1.782z"/></clipPath><clipPath id="eb"><path fill="#fff" d="M33.155 59.75c.31 0 .609.125.828.348.22.223.344.525.344.84v9.5c0 .315-.124.617-.344.84-.22.222-.517.347-.828.347H12.06c-.31 0-.609-.125-.829-.348a1.195 1.195 0 01-.343-.84v-9.5a1.2 1.2 0 01.343-.839c.22-.223.518-.348.829-.348h2.344v-1.377a3.59 3.59 0 00-.323-1.49 3.56 3.56 0 00-.909-1.217l-5.464-4.75a5.92 5.92 0 01-1.846-2.968L.777 28.718a4.819 4.819 0 01.54-3.714 4.732 4.732 0 011.294-1.396 4.663 4.663 0 011.733-.765 4.753 4.753 0 013.481.69 4.867 4.867 0 012.065 2.923l2.766 10.45a4.632 4.632 0 014.922-.154l8.023 4.769a10.661 10.661 0 013.81 3.91 10.839 10.839 0 011.4 5.309v9.01zm-18.453-5.886a5.93 5.93 0 011.51 2.027c.354.779.537 1.625.537 2.482v1.377h11.718v-9.01a8.425 8.425 0 00-1.088-4.13 8.287 8.287 0 00-2.964-3.04l-8.013-4.765a2.32 2.32 0 00-1.165-.311 2.293 2.293 0 00-1.228.345c-.37.229-.669.558-.863.95a2.524 2.524 0 00-.09 1.823 2.486 2.486 0 001.159 1.397l6.562 3.832c.27.157.467.417.547.721.08.305.039.63-.116.902a1.176 1.176 0 01-.712.554c-.3.082-.621.04-.89-.118l-6.563-3.832a4.83 4.83 0 01-2.142-2.51 4.91 4.91 0 01-.048-3.318L7.629 27.07a2.524 2.524 0 00-1.034-1.503 2.464 2.464 0 00-1.763-.398 2.347 2.347 0 00-1.336.825 2.403 2.403 0 00-.451 2.11L8.13 47.332a3.542 3.542 0 001.107 1.78zm17.28 8.261h-18.75v7.125h18.75z"/></clipPath><clipPath id="ec"><path fill="#fff" d="M54.25 16.522a29.931 29.931 0 01-4.167 15.28A29.412 29.412 0 0138.74 42.716l-2.688 1.453a1.16 1.16 0 01-1.104 0l-2.688-1.453A29.415 29.415 0 0120.917 31.8a29.935 29.935 0 01-4.167-15.279V1.56a1.2 1.2 0 01.585-1.03 1.16 1.16 0 011.173 0l1.665.965a12.721 12.721 0 0012.163.34l2.63-1.338a1.16 1.16 0 011.049 0l2.65 1.342a12.724 12.724 0 0012.157-.343l1.67-.967a1.16 1.16 0 011.602.436 1.2 1.2 0 01.156.595zm-16.614 24.1a27.058 27.058 0 0010.436-10.043 27.537 27.537 0 003.834-14.057V3.606a15.049 15.049 0 01-7.1 1.99 15.035 15.035 0 01-7.19-1.627l-2.125-1.076-2.11 1.07a15.036 15.036 0 01-7.187 1.629 15.05 15.05 0 01-7.1-1.986v12.916a27.539 27.539 0 003.834 14.057A27.06 27.06 0 0033.364 40.62l2.136 1.156z"/></clipPath><clipPath id="ed"><path fill="#fff" d="M49.565 16.52a25.141 25.141 0 01-3.5 12.835 24.703 24.703 0 01-9.529 9.169l-.483.261a1.16 1.16 0 01-1.102 0l-.482-.261a24.703 24.703 0 01-9.528-9.17 25.141 25.141 0 01-3.501-12.833V8.722a1.2 1.2 0 01.434-.921 1.166 1.166 0 01.98-.24c3.911.845 7.99.323 11.573-1.48l.541-.274a1.16 1.16 0 011.055 0l.553.28c3.582 1.8 7.66 2.32 11.57 1.475a1.157 1.157 0 01.983.237 1.184 1.184 0 01.436.925zm-2.344-6.379a19.83 19.83 0 01-11.69-1.93l-.028-.015-.022.012a19.855 19.855 0 01-11.697 1.932v6.38a22.75 22.75 0 003.147 11.578 22.355 22.355 0 008.572 8.293 22.355 22.355 0 008.571-8.293 22.75 22.75 0 003.147-11.577z"/></clipPath><clipPath id="ee"><path fill="#fff" d="M42.128 14.543l-8.973 9.092-3.659-3.707a1.164 1.164 0 00-1.643.014 1.195 1.195 0 00-.014 1.665l4.487 4.547a1.164 1.164 0 001.657 0l9.802-9.932a1.188 1.188 0 00.357-.844 1.203 1.203 0 00-.343-.85 1.17 1.17 0 00-.839-.348 1.16 1.16 0 00-.832.363z"/></clipPath></defs><path fill="#8e2e88" d="M69.317 24.498a4.809 4.809 0 01.898 4.221L65.13 47.947a5.93 5.93 0 01-1.847 2.969l-5.464 4.75a3.56 3.56 0 00-.906 1.216 3.603 3.603 0 00-.321 1.49v1.377h2.344c.31 0 .609.125.828.347.22.223.343.525.343.84v9.5c0 .315-.123.617-.343.84-.22.223-.518.348-.828.348H37.842c-.31 0-.609-.125-.829-.348a1.196 1.196 0 01-.343-.84v-9.5c0-.315.123-.617.343-.84.22-.222.518-.347.829-.347h2.344v-9.011a10.838 10.838 0 011.402-5.31 10.661 10.661 0 013.814-3.908l8.013-4.763a4.627 4.627 0 014.922.15l2.768-10.45a4.86 4.86 0 012.062-2.924 4.746 4.746 0 013.48-.69 4.698 4.698 0 012.67 1.655zM57.764 62.124h-18.75v7.125h18.75zm10.188-34.021A2.403 2.403 0 0067.498 26a2.347 2.347 0 00-1.33-.822 2.46 2.46 0 00-1.765.397 2.52 2.52 0 00-1.033 1.503L60.146 39.25a4.91 4.91 0 01-.048 3.318 4.83 4.83 0 01-2.142 2.509l-6.563 3.832a1.164 1.164 0 01-1.602-.436 1.198 1.198 0 01.43-1.623l6.563-3.832c.546-.3.96-.8 1.158-1.397a2.525 2.525 0 00-.09-1.822 2.333 2.333 0 00-.862-.96 2.29 2.29 0 00-1.233-.347c-.41 0-.815.11-1.171.317l-8.004 4.759a8.291 8.291 0 00-2.964 3.04 8.43 8.43 0 00-1.089 4.13v9.01h11.72v-1.377c0-.856.182-1.702.535-2.48a5.932 5.932 0 011.51-2.026l5.465-4.75a3.55 3.55 0 001.107-1.782z"/><path fill="none" stroke="#35b6b4" stroke-miterlimit="20" stroke-width=".2" d="M69.317 24.498a4.809 4.809 0 01.898 4.221L65.13 47.947a5.93 5.93 0 01-1.847 2.969l-5.464 4.75a3.56 3.56 0 00-.906 1.216 3.603 3.603 0 00-.321 1.49v1.377h2.344c.31 0 .609.125.828.347.22.223.343.525.343.84v9.5c0 .315-.123.617-.343.84-.22.223-.518.348-.828.348H37.842c-.31 0-.609-.125-.829-.348a1.196 1.196 0 01-.343-.84v-9.5c0-.315.123-.617.343-.84.22-.222.518-.347.829-.347h2.344v-9.011a10.838 10.838 0 011.402-5.31 10.661 10.661 0 013.814-3.908l8.013-4.763a4.627 4.627 0 014.922.15l2.768-10.45a4.86 4.86 0 012.062-2.924 4.746 4.746 0 013.48-.69 4.698 4.698 0 012.67 1.655zM57.764 62.124h-18.75v7.125h18.75zm10.188-34.021A2.403 2.403 0 0067.498 26a2.347 2.347 0 00-1.33-.822 2.46 2.46 0 00-1.765.397 2.52 2.52 0 00-1.033 1.503L60.146 39.25a4.91 4.91 0 01-.048 3.318 4.83 4.83 0 01-2.142 2.509l-6.563 3.832a1.164 1.164 0 01-1.602-.436 1.198 1.198 0 01.43-1.623l6.563-3.832c.546-.3.96-.8 1.158-1.397a2.525 2.525 0 00-.09-1.822 2.333 2.333 0 00-.862-.96 2.29 2.29 0 00-1.233-.347c-.41 0-.815.11-1.171.317l-8.004 4.759a8.291 8.291 0 00-2.964 3.04 8.43 8.43 0 00-1.089 4.13v9.01h11.72v-1.377c0-.856.182-1.702.535-2.48a5.932 5.932 0 011.51-2.026l5.465-4.75a3.55 3.55 0 001.107-1.782z" clip-path="url(#ea)"/><path fill="#8e2e88" d="M33.155 59.75c.31 0 .609.125.828.348.22.223.344.525.344.84v9.5c0 .315-.124.617-.344.84-.22.222-.517.347-.828.347H12.06c-.31 0-.609-.125-.829-.348a1.195 1.195 0 01-.343-.84v-9.5a1.2 1.2 0 01.343-.839c.22-.223.518-.348.829-.348h2.344v-1.377a3.59 3.59 0 00-.323-1.49 3.56 3.56 0 00-.909-1.217l-5.464-4.75a5.92 5.92 0 01-1.846-2.968L.777 28.718a4.819 4.819 0 01.54-3.714 4.732 4.732 0 011.294-1.396 4.663 4.663 0 011.733-.765 4.753 4.753 0 013.481.69 4.867 4.867 0 012.065 2.923l2.766 10.45a4.632 4.632 0 014.922-.154l8.023 4.769a10.661 10.661 0 013.81 3.91 10.839 10.839 0 011.4 5.309v9.01zm-18.453-5.886a5.93 5.93 0 011.51 2.027c.354.779.537 1.625.537 2.482v1.377h11.718v-9.01a8.425 8.425 0 00-1.088-4.13 8.287 8.287 0 00-2.964-3.04l-8.013-4.765a2.32 2.32 0 00-1.165-.311 2.293 2.293 0 00-1.228.345c-.37.229-.669.558-.863.95a2.524 2.524 0 00-.09 1.823 2.486 2.486 0 001.159 1.397l6.562 3.832c.27.157.467.417.547.721.08.305.039.63-.116.902a1.176 1.176 0 01-.712.554c-.3.082-.621.04-.89-.118l-6.563-3.832a4.83 4.83 0 01-2.142-2.51 4.91 4.91 0 01-.048-3.318L7.629 27.07a2.524 2.524 0 00-1.034-1.503 2.464 2.464 0 00-1.763-.398 2.347 2.347 0 00-1.336.825 2.403 2.403 0 00-.451 2.11L8.13 47.332a3.542 3.542 0 001.107 1.78zm17.28 8.261h-18.75v7.125h18.75z"/><path fill="none" stroke="#35b6b4" stroke-miterlimit="20" stroke-width=".2" d="M33.155 59.75c.31 0 .609.125.828.348.22.223.344.525.344.84v9.5c0 .315-.124.617-.344.84-.22.222-.517.347-.828.347H12.06c-.31 0-.609-.125-.829-.348a1.195 1.195 0 01-.343-.84v-9.5a1.2 1.2 0 01.343-.839c.22-.223.518-.348.829-.348h2.344v-1.377a3.59 3.59 0 00-.323-1.49 3.56 3.56 0 00-.909-1.217l-5.464-4.75a5.92 5.92 0 01-1.846-2.968L.777 28.718a4.819 4.819 0 01.54-3.714 4.732 4.732 0 011.294-1.396 4.663 4.663 0 011.733-.765 4.753 4.753 0 013.481.69 4.867 4.867 0 012.065 2.923l2.766 10.45a4.632 4.632 0 014.922-.154l8.023 4.769a10.661 10.661 0 013.81 3.91 10.839 10.839 0 011.4 5.309v9.01zm-18.453-5.886a5.93 5.93 0 011.51 2.027c.354.779.537 1.625.537 2.482v1.377h11.718v-9.01a8.425 8.425 0 00-1.088-4.13 8.287 8.287 0 00-2.964-3.04l-8.013-4.765a2.32 2.32 0 00-1.165-.311 2.293 2.293 0 00-1.228.345c-.37.229-.669.558-.863.95a2.524 2.524 0 00-.09 1.823 2.486 2.486 0 001.159 1.397l6.562 3.832c.27.157.467.417.547.721.08.305.039.63-.116.902a1.176 1.176 0 01-.712.554c-.3.082-.621.04-.89-.118l-6.563-3.832a4.83 4.83 0 01-2.142-2.51 4.91 4.91 0 01-.048-3.318L7.629 27.07a2.524 2.524 0 00-1.034-1.503 2.464 2.464 0 00-1.763-.398 2.347 2.347 0 00-1.336.825 2.403 2.403 0 00-.451 2.11L8.13 47.332a3.542 3.542 0 001.107 1.78zm17.28 8.261h-18.75v7.125h18.75z" clip-path="url(#eb)"/><path fill="#8e2e88" d="M54.25 16.522a29.931 29.931 0 01-4.167 15.28A29.412 29.412 0 0138.74 42.716l-2.688 1.453a1.16 1.16 0 01-1.104 0l-2.688-1.453A29.415 29.415 0 0120.917 31.8a29.935 29.935 0 01-4.167-15.279V1.56a1.2 1.2 0 01.585-1.03 1.16 1.16 0 011.173 0l1.665.965a12.721 12.721 0 0012.163.34l2.63-1.338a1.16 1.16 0 011.049 0l2.65 1.342a12.724 12.724 0 0012.157-.343l1.67-.967a1.16 1.16 0 011.602.436 1.2 1.2 0 01.156.595zm-16.614 24.1a27.058 27.058 0 0010.436-10.043 27.537 27.537 0 003.834-14.057V3.606a15.049 15.049 0 01-7.1 1.99 15.035 15.035 0 01-7.19-1.627l-2.125-1.076-2.11 1.07a15.036 15.036 0 01-7.187 1.629 15.05 15.05 0 01-7.1-1.986v12.916a27.539 27.539 0 003.834 14.057A27.06 27.06 0 0033.364 40.62l2.136 1.156z"/><path fill="none" stroke="#35b6b4" stroke-miterlimit="20" stroke-width=".2" d="M54.25 16.522a29.931 29.931 0 01-4.167 15.28A29.412 29.412 0 0138.74 42.716l-2.688 1.453a1.16 1.16 0 01-1.104 0l-2.688-1.453A29.415 29.415 0 0120.917 31.8a29.935 29.935 0 01-4.167-15.279V1.56a1.2 1.2 0 01.585-1.03 1.16 1.16 0 011.173 0l1.665.965a12.721 12.721 0 0012.163.34l2.63-1.338a1.16 1.16 0 011.049 0l2.65 1.342a12.724 12.724 0 0012.157-.343l1.67-.967a1.16 1.16 0 011.602.436 1.2 1.2 0 01.156.595zm-16.614 24.1a27.058 27.058 0 0010.436-10.043 27.537 27.537 0 003.834-14.057V3.606a15.049 15.049 0 01-7.1 1.99 15.035 15.035 0 01-7.19-1.627l-2.125-1.076-2.11 1.07a15.036 15.036 0 01-7.187 1.629 15.05 15.05 0 01-7.1-1.986v12.916a27.539 27.539 0 003.834 14.057A27.06 27.06 0 0033.364 40.62l2.136 1.156z" clip-path="url(#ec)"/><path fill="#8e2e88" d="M49.565 16.52a25.141 25.141 0 01-3.5 12.835 24.703 24.703 0 01-9.529 9.169l-.483.261a1.16 1.16 0 01-1.102 0l-.482-.261a24.703 24.703 0 01-9.528-9.17 25.141 25.141 0 01-3.501-12.833V8.722a1.2 1.2 0 01.434-.921 1.166 1.166 0 01.98-.24c3.911.845 7.99.323 11.573-1.48l.541-.274a1.16 1.16 0 011.055 0l.553.28c3.582 1.8 7.66 2.32 11.57 1.475a1.157 1.157 0 01.983.237 1.184 1.184 0 01.436.925zm-2.344-6.379a19.83 19.83 0 01-11.69-1.93l-.028-.015-.022.012a19.855 19.855 0 01-11.697 1.932v6.38a22.75 22.75 0 003.147 11.578 22.355 22.355 0 008.572 8.293 22.355 22.355 0 008.571-8.293 22.75 22.75 0 003.147-11.577z"/><path fill="none" stroke="#35b6b4" stroke-miterlimit="20" stroke-width=".2" d="M49.565 16.52a25.141 25.141 0 01-3.5 12.835 24.703 24.703 0 01-9.529 9.169l-.483.261a1.16 1.16 0 01-1.102 0l-.482-.261a24.703 24.703 0 01-9.528-9.17 25.141 25.141 0 01-3.501-12.833V8.722a1.2 1.2 0 01.434-.921 1.166 1.166 0 01.98-.24c3.911.845 7.99.323 11.573-1.48l.541-.274a1.16 1.16 0 011.055 0l.553.28c3.582 1.8 7.66 2.32 11.57 1.475a1.157 1.157 0 01.983.237 1.184 1.184 0 01.436.925zm-2.344-6.379a19.83 19.83 0 01-11.69-1.93l-.028-.015-.022.012a19.855 19.855 0 01-11.697 1.932v6.38a22.75 22.75 0 003.147 11.578 22.355 22.355 0 008.572 8.293 22.355 22.355 0 008.571-8.293 22.75 22.75 0 003.147-11.577z" clip-path="url(#ed)"/><path fill="#8e2e88" d="M42.128 14.543l-8.973 9.092-3.659-3.707a1.164 1.164 0 00-1.643.014 1.195 1.195 0 00-.014 1.665l4.487 4.547a1.164 1.164 0 001.657 0l9.802-9.932a1.188 1.188 0 00.357-.844 1.203 1.203 0 00-.343-.85 1.17 1.17 0 00-.839-.348 1.16 1.16 0 00-.832.363z"/><path fill="none" stroke="#35b6b4" stroke-miterlimit="20" stroke-width=".2" d="M42.128 14.543v0l-8.973 9.092v0l-3.659-3.707a1.164 1.164 0 00-1.643.014 1.195 1.195 0 00-.014 1.665l4.487 4.547a1.164 1.164 0 001.657 0l9.802-9.932a1.188 1.188 0 00.357-.844 1.203 1.203 0 00-.343-.85 1.17 1.17 0 00-.839-.348 1.16 1.16 0 00-.832.363z" clip-path="url(#ee)"/></svg><svg viewBox="-21.56 -21.56 109.13 112.13" id="9-layers" xmlns="http://www.w3.org/2000/svg"><path fill="#8e2e88" d="M22.619 64.356c-1.754-.156-5.52 0-5.88 0H8.975a7.754 7.754 0 01-1.547-.13c-3.353-.678-5.313-3.313-5.313-7.122v-31.46c.077-.47.129-.94.129-1.41 0-3.912-.052-11.347-.078-15.234-.051-4.148 2.812-7.017 7.093-7.017h28.164c4.282 0 7.119 2.87 7.093 7.07-.026 3.912-.077 11.32-.077 15.234 0 .6.077 1.226.18 1.8.103.47.49.73.954.704.49-.026.774-.339.877-.808.052-.287.052-.6.052-.913 0-4.305.026-12.13 0-16.435C46.476 3.73 42.762 0 37.913 0H8.743C3.894 0 .181 3.73.155 8.66c-.026 2.297-.026 5.557-.026 8.766-.052 0-.103 0-.129.026v39.783c0 2.191.542 4.2 1.934 5.948 2.012 2.504 4.72 3.339 7.764 3.339H21.51c.335 0 .696 0 1.032-.026.696-.079 1.444-.157 1.444-1.122 0-.887-.696-.94-1.367-1.017z"/><path fill="none" stroke="#8e2e88" stroke-miterlimit="20" stroke-width=".4" d="M22.619 64.356c-1.754-.156-5.52 0-5.88 0H8.975a7.754 7.754 0 01-1.547-.13c-3.353-.678-5.313-3.313-5.313-7.122v-31.46c.077-.47.129-.94.129-1.41 0-3.912-.052-11.347-.078-15.234-.051-4.148 2.812-7.017 7.093-7.017h28.164c4.282 0 7.119 2.87 7.093 7.07-.026 3.912-.077 11.32-.077 15.234 0 .6.077 1.226.18 1.8.103.47.49.73.954.704.49-.026.774-.339.877-.808.052-.287.052-.6.052-.913 0-4.305.026-12.13 0-16.435C46.476 3.73 42.762 0 37.913 0H8.743C3.894 0 .181 3.73.155 8.66c-.026 2.297-.026 5.557-.026 8.766-.052 0-.103 0-.129.026v39.783c0 2.191.542 4.2 1.934 5.948 2.012 2.504 4.72 3.339 7.764 3.339H21.51c.335 0 .696 0 1.032-.026.696-.079 1.444-.157 1.444-1.122 0-.887-.696-.94-1.367-1.017z"/><path fill="#8e2e88" d="M9.925 20.735c.361.078.774.104 1.161.104H35.82c.387 0 .774-.026 1.16-.104.568-.105.929-.496.903-1.096-.026-.548-.438-.835-.954-.887-.413-.052-.851-.052-1.29-.052H11.318c-.438 0-.851 0-1.29.052-.541.052-.876.391-.876.94-.026.521.258.938.773 1.043z"/><path fill="none" stroke="#8e2e88" stroke-miterlimit="20" stroke-width=".4" d="M9.925 20.735c.361.078.774.104 1.161.104H35.82c.387 0 .774-.026 1.16-.104.568-.105.929-.496.903-1.096-.026-.548-.438-.835-.954-.887-.413-.052-.851-.052-1.29-.052H11.318c-.438 0-.851 0-1.29.052-.541.052-.876.391-.876.94-.026.521.258.938.773 1.043z"/><path fill="#8e2e88" d="M10.241 12.553c.413.052.851.052 1.29.052h24.321c.851 0 1.96.13 1.986-1.096 0-1.278-1.16-1.017-1.986-1.017-7.634-.026-15.268 0-22.903 0-.85 0-1.728 0-2.579.026-.619 0-1.16.183-1.212.887-.077.73.413 1.043 1.083 1.148z"/><path fill="none" stroke="#8e2e88" stroke-miterlimit="20" stroke-width=".4" d="M10.241 12.553c.413.052.851.052 1.29.052h24.321c.851 0 1.96.13 1.986-1.096 0-1.278-1.16-1.017-1.986-1.017-7.634-.026-15.268 0-22.903 0-.85 0-1.728 0-2.579.026-.619 0-1.16.183-1.212.887-.077.73.413 1.043 1.083 1.148z"/><path fill="#8e2e88" d="M23.599 26.9H9.955c-.464.026-.825.26-.825 1.017 0 .73.387.887.8.913h13.72c.439-.026.852-.13.877-.939 0-.887-.438-.991-.928-.991z"/><path fill="none" stroke="#8e2e88" stroke-miterlimit="20" stroke-width=".4" d="M23.599 26.9H9.955c-.464.026-.825.26-.825 1.017 0 .73.387.887.8.913h13.72c.439-.026.852-.13.877-.939 0-.887-.438-.991-.928-.991z"/><path fill="#8e2e88" d="M16.485 36.887c.541 0 1.109-.079 1.135-.966.025-.887-.516-.991-1.084-.991h-6.19c-.593 0-1.186.052-1.186 1.017.026.861.567.94 1.135.94h6.19z"/><path fill="none" stroke="#8e2e88" stroke-miterlimit="20" stroke-width=".4" d="M16.485 36.887c.541 0 1.109-.079 1.135-.966.025-.887-.516-.991-1.084-.991h-6.19c-.593 0-1.186.052-1.186 1.017.026.861.567.94 1.135.94h6.19z"/><path fill="#8e2e88" d="M65.924 41.926v1.07c0 .626-.026 1.226-.026 1.852-.026 1.096-.593 1.878-1.547 2.165-.361.13-.722.13-1.058.13-.335.027-.619.027-.696.13-.077.131-.077.497-.077.992 0 .991.025 2.009.025 3.026v.366l-.051.078v3.026c0 3.73.026 7.591 0 11.374 0 2.06-.826 2.87-2.966 2.87H31.286c-2.115 0-2.966-.81-2.966-2.87-.026-3.835 0-7.696 0-11.452v-2.948l-.051-.078v-.366c.025-.991.025-2.008.025-3.026 0-.522 0-.887-.077-.991-.077-.104-.361-.13-.722-.13-.31.026-.696 0-1.058-.131-.954-.287-1.495-1.07-1.521-2.14-.026-.625-.026-1.251-.026-1.877v-1.018c0-1.148 0-2.165.026-3.182.026-1.253.928-2.192 2.218-2.244.464-.026.928-.026 1.264-.026h.773c.104 0 .155-.026.18-.026 0-.052 0-.157-.128-.365-.67-1.252-.877-2.53-.645-3.835.387-2.14 1.96-3.783 4.075-4.278a5.306 5.306 0 012.012-.157c3.404.444 5.751 2.661 7.402 4.54.052.052.077.104.129.156.026.026.052.078.077.104.104.13.207.235.284.365.155.261.335.496.542.627.051 0 .154-.053.283-.13.155-.105.31-.184.516-.288l.155-.078h.026a3.403 3.403 0 011.264-.235h.154c.439 0 .851.078 1.264.235h.026l.155.078c.206.078.36.183.515.287.104.078.207.13.284.13.232-.156.387-.39.568-.626.103-.13.18-.26.283-.365.026-.026.052-.078.078-.104.051-.052.077-.104.129-.157 1.65-1.878 3.971-4.095 7.402-4.539a5.267 5.267 0 012.011.157c2.115.495 3.689 2.139 4.075 4.278.258 1.304.026 2.583-.644 3.835-.103.235-.13.339-.13.365.027 0 .078.026.207.026h.774c.36 0 .8 0 1.264.026 1.29.052 2.192.991 2.218 2.244.025 1.017.025 2.06-.052 3.13zm-31.362 3.47h6.911c.233-.053.388-.079.388-.626-.026-1.8-.026-3.73 0-5.922 0-.496-.155-.548-.465-.574-4.487.026-9.078 0-13.643.026-.67 0-.929.26-.929.965v5.087c.026.861.18 1.044 1.058 1.044h6.68zm7.299 2.556c0-.574-.13-.678-.284-.73-.026-.026-.052-.026-.077-.026-.026-.026-.078-.026-.13-.026v-.261l-.025.26h-1.083c-3.095.027-6.19.027-9.26 0h-.051c-.335-.026-.516.027-.619.131-.077.104-.129.287-.129.626.026 4.383.026 8.817.026 13.122v5.113c0 .991.129 1.122 1.057 1.122h7.144c.387-.026.852-.026 1.342-.026.464 0 .98 0 1.496.026.206 0 .36-.026.464-.079.051-.052.129-.156.129-.547v-12c0-2.192-.026-4.487 0-6.705zm.051-12.626c-1.702-2.478-3.74-4.852-7.015-5.53a4.027 4.027 0 00-2.09.078c-.334.13-.67.313-.98.574-1.727 1.435-1.882 3.574-.412 5.582.232.287.464.444.774.47h9.027c.361-.026.645-.209.774-.496.103-.208.077-.443-.078-.678zm1.857 1.122a.277.277 0 00.18.078h3.07c.077-.026.155-.026.18-.078.026-.026.052-.105 0-.313-.154-.705-.98-1.409-1.702-1.435-.696 0-1.547.704-1.702 1.435-.051.208-.026.287-.026.313zm3.405 12.391v-9.626c0-.365 0-.73-.078-.835-.051-.078-.36-.104-.644-.104h-2.064c-.284.026-.593.026-.645.104-.077.105-.077.47-.077.835v27.183c0 .365 0 .73.078.782.077.079.412.079.825.079h1.754c.412 0 .747 0 .825-.079.077-.052.077-.417.077-.782zm1.805-12.809a.93.93 0 00.774.496h9.053c.31-.026.515-.156.748-.47 1.495-2.008 1.315-4.147-.413-5.582a3.869 3.869 0 00-1.006-.574 3.386 3.386 0 00-1.16-.183c-.284 0-.594.053-.903.105-3.276.678-5.313 3.052-7.016 5.53a.648.648 0 00-.077.678zM60.714 47.9c0-.34-.026-.522-.129-.626-.103-.078-.284-.13-.619-.13h-.026c-3.069.026-6.19.026-9.284 0h-1.084l-.051-.261.025.26c-.051 0-.077.027-.129.027-.025 0-.051.026-.077.026-.155.052-.284.156-.284.73.026 2.244.026 4.54.026 6.73v5.01c.026 2.295.026 4.669 0 6.99 0 .392.078.496.155.548.077.026.232.052.438.052a52.056 52.056 0 012.863 0h7.144c.929 0 1.058-.13 1.058-1.121v-5.061c0-4.304 0-8.765-.026-13.174zm3.43-8.635c0-.704-.258-.965-.928-.965-4.565-.026-9.104-.026-13.67-.026-.309.026-.438.078-.438.574.026 2.191.026 4.122 0 5.922-.026.547.129.6.387.626h13.591c.878 0 1.058-.157 1.058-1.044v-5.087z"/><path fill="none" stroke="#8e2e88" stroke-miterlimit="20" stroke-width=".4" d="M65.924 41.926v1.07c0 .626-.026 1.226-.026 1.852-.026 1.096-.593 1.878-1.547 2.165-.361.13-.722.13-1.058.13-.335.027-.619.027-.696.13-.077.131-.077.497-.077.992 0 .991.025 2.009.025 3.026v.366l-.051.078v3.026c0 3.73.026 7.591 0 11.374 0 2.06-.826 2.87-2.966 2.87H31.286c-2.115 0-2.966-.81-2.966-2.87-.026-3.835 0-7.696 0-11.452v-2.948l-.051-.078v-.366c.025-.991.025-2.008.025-3.026 0-.522 0-.887-.077-.991-.077-.104-.361-.13-.722-.13-.31.026-.696 0-1.058-.131-.954-.287-1.495-1.07-1.521-2.14-.026-.625-.026-1.251-.026-1.877v-1.018c0-1.148 0-2.165.026-3.182.026-1.253.928-2.192 2.218-2.244.464-.026.928-.026 1.264-.026h.773c.104 0 .155-.026.18-.026 0-.052 0-.157-.128-.365-.67-1.252-.877-2.53-.645-3.835.387-2.14 1.96-3.783 4.075-4.278a5.306 5.306 0 012.012-.157c3.404.444 5.751 2.661 7.402 4.54.052.052.077.104.129.156.026.026.052.078.077.104.104.13.207.235.284.365.155.261.335.496.542.627.051 0 .154-.053.283-.13.155-.105.31-.184.516-.288l.155-.078h.026a3.403 3.403 0 011.264-.235h.154c.439 0 .851.078 1.264.235h.026l.155.078c.206.078.36.183.515.287.104.078.207.13.284.13.232-.156.387-.39.568-.626.103-.13.18-.26.283-.365.026-.026.052-.078.078-.104.051-.052.077-.104.129-.157 1.65-1.878 3.971-4.095 7.402-4.539a5.267 5.267 0 012.011.157c2.115.495 3.689 2.139 4.075 4.278.258 1.304.026 2.583-.644 3.835-.103.235-.13.339-.13.365.027 0 .078.026.207.026h.774c.36 0 .8 0 1.264.026 1.29.052 2.192.991 2.218 2.244.025 1.017.025 2.06-.052 3.13zm-31.362 3.47h6.911c.233-.053.388-.079.388-.626-.026-1.8-.026-3.73 0-5.922 0-.496-.155-.548-.465-.574-4.487.026-9.078 0-13.643.026-.67 0-.929.26-.929.965v5.087c.026.861.18 1.044 1.058 1.044h6.68zm7.299 2.556c0-.574-.13-.678-.284-.73-.026-.026-.052-.026-.077-.026-.026-.026-.078-.026-.13-.026v-.261l-.025.26h-1.083c-3.095.027-6.19.027-9.26 0h-.051c-.335-.026-.516.027-.619.131-.077.104-.129.287-.129.626.026 4.383.026 8.817.026 13.122v5.113c0 .991.129 1.122 1.057 1.122h7.144c.387-.026.852-.026 1.342-.026.464 0 .98 0 1.496.026.206 0 .36-.026.464-.079.051-.052.129-.156.129-.547v-12c0-2.192-.026-4.487 0-6.705zm.051-12.626c-1.702-2.478-3.74-4.852-7.015-5.53a4.027 4.027 0 00-2.09.078c-.334.13-.67.313-.98.574-1.727 1.435-1.882 3.574-.412 5.582.232.287.464.444.774.47h9.027c.361-.026.645-.209.774-.496.103-.208.077-.443-.078-.678zm1.857 1.122a.277.277 0 00.18.078h3.07c.077-.026.155-.026.18-.078.026-.026.052-.105 0-.313-.154-.705-.98-1.409-1.702-1.435-.696 0-1.547.704-1.702 1.435-.051.208-.026.287-.026.313zm3.405 12.391v-9.626c0-.365 0-.73-.078-.835-.051-.078-.36-.104-.644-.104h-2.064c-.284.026-.593.026-.645.104-.077.105-.077.47-.077.835v27.183c0 .365 0 .73.078.782.077.079.412.079.825.079h1.754c.412 0 .747 0 .825-.079.077-.052.077-.417.077-.782zm1.805-12.809a.93.93 0 00.774.496h9.053c.31-.026.515-.156.748-.47 1.495-2.008 1.315-4.147-.413-5.582a3.869 3.869 0 00-1.006-.574 3.386 3.386 0 00-1.16-.183c-.284 0-.594.053-.903.105-3.276.678-5.313 3.052-7.016 5.53a.648.648 0 00-.077.678zM60.714 47.9c0-.34-.026-.522-.129-.626-.103-.078-.284-.13-.619-.13h-.026c-3.069.026-6.19.026-9.284 0h-1.084l-.051-.261.025.26c-.051 0-.077.027-.129.027-.025 0-.051.026-.077.026-.155.052-.284.156-.284.73.026 2.244.026 4.54.026 6.73v5.01c.026 2.295.026 4.669 0 6.99 0 .392.078.496.155.548.077.026.232.052.438.052a52.056 52.056 0 012.863 0h7.144c.929 0 1.058-.13 1.058-1.121v-5.061c0-4.304 0-8.765-.026-13.174zm3.43-8.635c0-.704-.258-.965-.928-.965-4.565-.026-9.104-.026-13.67-.026-.309.026-.438.078-.438.574.026 2.191.026 4.122 0 5.922-.026.547.129.6.387.626h13.591c.878 0 1.058-.157 1.058-1.044v-5.087z"/></svg><svg viewBox="-10 -10 52 52" id="arrow_back" xmlns="http://www.w3.org/2000/svg"><path d="M4.292 15.708l6 6a1 1 0 001.414-1.414L7.414 16H22c4 0 6 3.692 6 7a1 1 0 002 0c0-4.412-2-9-8-9H7.414l4.292-4.292a1 1 0 00-1.414-1.414l-6 6a1 1 0 000 1.414z"/></svg><svg viewBox="-10 -10 52 52" id="arrow_carrot_up_alt" xmlns="http://www.w3.org/2000/svg"><path d="M17 32c8.284 0 15-6.716 15-15S25.284 2 17 2 2 8.716 2 17s6.716 15 15 15zM9.804 18.786L16.29 12.3a.997.997 0 01.71-.292c.258 0 .514.096.71.292l6.486 6.486a1 1 0 01-1.414 1.414L17 14.418 11.218 20.2a1 1 0 01-1.414-1.414z"/></svg></svg>