<svg width="70" height="70" fill="none" xmlns="http://www.w3.org/2000/svg"><path d="M60.156 8.75a7.656 7.656 0 00-7.569 6.563H39.376V17.5H52.5v42.656a1.093 1.093 0 102.188 0 5.468 5.468 0 1110.937 0v.23a5.25 5.25 0 01-5.24 5.239H4.376V43.003a29.64 29.64 0 0026.25 16.06 1.093 1.093 0 100-2.188 27.169 27.169 0 01-11.844-2.743l.679-2.533a3.2 3.2 0 002.903-2.406l3.6-13.427c.818.15 1.644.25 2.474.296v1.126a1.093 1.093 0 102.188 0v-1.126a19.57 19.57 0 002.474-.294l3.6 13.421a3.195 3.195 0 002.904 2.407l.903 3.373a1.095 1.095 0 102.113-.565l-.902-3.365a3.29 3.29 0 001.312-3.536l-7.177-26.784a7.636 7.636 0 00-1.946-10.587v-3.57a4.375 4.375 0 10-8.75 0v3.57a7.636 7.636 0 00-1.945 10.587l-7.184 26.788a3.28 3.28 0 001.319 3.53l-.547 2.035A27.312 27.312 0 014.375 37.157V17.5h15.313v-2.188h-17.5v52.5h58.198a7.438 7.438 0 007.426-7.43V16.406a7.665 7.665 0 00-7.656-7.656zM30.625 33.84v-1.028a1.093 1.093 0 10-2.188 0v1.029a17.4 17.4 0 01-1.897-.22l2.568-9.578c.141.008.28.022.423.022.143 0 .282-.015.424-.022l2.568 9.579a17.4 17.4 0 01-1.898.219zM40.92 48.066a1.104 1.104 0 01-.765 1.34h-.007a1.077 1.077 0 01-1.328-.774L32.103 23.61a7.636 7.636 0 001.976-1.058l6.841 25.514zM27.344 6.563a2.187 2.187 0 114.375 0v2.515a7.576 7.576 0 00-4.375 0V6.563zm2.187 4.375a5.468 5.468 0 110 10.935 5.468 5.468 0 010-10.936zm-11.39 37.131l6.842-25.518c.604.448 1.27.804 1.977 1.058l-6.711 25.027a1.094 1.094 0 01-1.324.774h-.01a1.104 1.104 0 01-.774-1.34zm47.484 6.733a7.648 7.648 0 00-10.938 0V16.406a5.468 5.468 0 1110.938 0v38.396z" fill="#8E2E88"/><path d="M29.531 19.688a3.28 3.28 0 100-6.562 3.28 3.28 0 000 6.562zm0-4.375a1.094 1.094 0 110 2.187 1.094 1.094 0 010-2.188z" fill="#8E2E88"/></svg>