<svg width="67" height="67" fill="none" xmlns="http://www.w3.org/2000/svg"><path d="M32.42 25.936v6.483H67v-6.483H32.42zm32.419 4.322H34.58v-2.161h30.258v2.161zM34.58 23.774h2.162V22.14l12.968-9.97 12.967 9.97v1.634h2.162v-2.688L49.709 9.442 34.582 21.086v2.688zM67 55.113c0-3.026-1.04-6.011-2.931-8.375l-.946-1.189a3.295 3.295 0 00-4.755-.446s-2.16 2.432-3.174 4.593c-.784 1.675-1.148 3.54-1.148 5.403 0 3.202 2.337 5.863 5.403 6.39v3.35h-5.403V54.033H45.4v10.806H34.594v-3.337a6.478 6.478 0 005.403-6.39c0-3.025-1.04-6.01-2.93-8.374l-.946-1.189a3.303 3.303 0 00-2.594-1.256c-1.013 0-1.972.46-2.594 1.243l-.945 1.188a13.446 13.446 0 00-2.931 8.375c0 3.202 2.337 5.863 5.403 6.39v3.35h-9.726V54.032H14.09V64.84H7.565v-3.337a6.478 6.478 0 005.403-6.39c0-2.7-.824-5.348-2.35-7.564 0 0-2.554-4.322-5.215-3.039-.554.27-1.12.554-1.513 1.054l-.945 1.188A13.342 13.342 0 000 55.113c0 3.201 2.337 5.862 5.403 6.39v3.336H2.161v-3.242H0V67h67v-5.403h-2.161v3.242h-3.242v-3.337c3.066-.527 5.403-3.188 5.403-6.39zM7.565 43.226h3.052v3.525l-1.702-1.364a3.3 3.3 0 00-1.35-.878v-1.283zM5.403 54.032v5.255c-1.864-.486-3.242-2.161-3.242-4.174 0-2.54.878-5.039 2.459-7.024l.945-1.189c.23-.284.554-.432.919-.432s.689.162.918.432l.946 1.189a11.338 11.338 0 012.458 7.024c0 2.013-1.377 3.688-3.241 4.174v-5.255H5.403zm15.13 10.807H16.21v-8.645h4.322v8.645zm11.886-10.807v5.255c-1.864-.486-3.242-2.161-3.242-4.174 0-2.54.878-5.039 2.459-7.024l.945-1.189c.23-.284.554-.432.919-.432s.689.162.919.432l.945 1.189a11.257 11.257 0 012.459 7.024c0 2.013-1.378 3.688-3.242 4.174v-5.255h-2.162zM51.871 64.84h-4.323v-8.645h4.323v8.645zm2.161-16.75v-2.702h2.742v2.702h-2.742zm5.404 5.943v5.255c-1.865-.486-3.242-2.161-3.242-4.174 0-2.54.878-5.039 2.458-7.024l.946-1.189c.23-.284.553-.432.918-.432s.689.162.919.432l.945 1.189a11.257 11.257 0 012.459 7.024c0 2.013-1.378 3.688-3.242 4.174v-5.255h-2.162zM36.742 34.58H34.58v8.646h2.16V34.58zm28.097 0h-2.161v8.646h2.16V34.58zm-7.986 4.983h-2.82v-2.821h2.82v2.821zm-10.806 0h-2.821v-2.821h2.82v2.821zM19.03 20.111h-2.82v-2.82h2.82v2.82zm8.646 0h-2.821v-2.82h2.82v2.82zm-17.29 0H7.564v-2.82h2.822v2.82zm8.644 8.646h-2.82v-2.822h2.82v2.822zm8.646 0h-2.821v-2.822h2.82v2.822zm-17.29 0H7.564v-2.822h2.822v2.822zm8.644 8.645h-2.82V34.58h2.82v2.82zm8.646 0h-2.821V34.58h2.82v2.82zM7.564 34.58h2.822v2.822H7.564V34.58z" fill="#8E2E88"/><path d="M16.21 43.226h2.82v2.82h-2.82v-2.82zm8.645 0h2.82v2.82h-2.82v-2.82zm18.371 2.161h2.82v2.821h-2.82v-2.82zM2.161 12.968H32.42v5.403h2.162v-7.565H0v35.662h2.161v-33.5zm3.242-6.484h23.774v2.161h2.162V4.323h-2.162V0H5.403v4.323H3.242v4.322h2.161V6.484zM7.565 2.16h19.451v2.162H7.565V2.16z" fill="#8E2E88"/></svg>