<svg width="66" height="69" fill="none" xmlns="http://www.w3.org/2000/svg"><g clip-path="url(#clip0)" fill="#8E2E88" stroke="#8E2E88" stroke-width=".4"><path d="M22.619 64.356c-1.754-.156-5.52 0-5.88 0H8.975a7.754 7.754 0 01-1.547-.13c-3.353-.678-5.313-3.313-5.313-7.122v-31.46c.077-.47.129-.94.129-1.41 0-3.912-.052-11.347-.078-15.234-.051-4.148 2.812-7.017 7.093-7.017h28.164c4.282 0 7.119 2.87 7.093 7.07-.026 3.912-.078 11.32-.078 15.234 0 .6.078 1.226.181 1.8.103.47.49.73.954.704.49-.026.774-.339.877-.808.052-.287.052-.6.052-.913 0-4.305.026-12.13 0-16.435C46.476 3.73 42.762 0 37.913 0H8.743C3.894 0 .181 3.73.155 8.66c-.026 2.296-.026 5.557-.026 8.766-.052 0-.103 0-.129.026v39.783c0 2.191.542 4.2 1.934 5.948 2.012 2.504 4.72 3.339 7.764 3.339H21.51c.335 0 .696 0 1.032-.026.696-.079 1.444-.157 1.444-1.122 0-.887-.696-.94-1.367-1.017z"/><path d="M9.93 20.74c.36.077.773.104 1.16.104h24.734a5.82 5.82 0 001.16-.105c.568-.104.93-.495.903-1.096-.025-.547-.438-.834-.954-.887-.413-.052-.85-.052-1.29-.052h-24.32c-.438 0-.85 0-1.29.052-.54.053-.876.392-.876.94-.026.521.258.939.774 1.043zm.31-8.192c.412.052.85.052 1.289.052H35.85c.851 0 1.96.13 1.986-1.096 0-1.278-1.16-1.017-1.986-1.017-7.634-.026-15.269 0-22.903 0-.85 0-1.728 0-2.579.026-.619 0-1.16.183-1.212.887-.077.73.413 1.043 1.083 1.148zM23.6 26.895H9.954c-.464.027-.825.261-.825 1.018 0 .73.387.887.8.913H23.65c.438-.026.85-.13.877-.94 0-.886-.439-.99-.929-.99zm-7.12 9.992c.542 0 1.11-.078 1.136-.965.025-.887-.516-.992-1.084-.992h-6.19c-.593 0-1.186.053-1.186 1.018.026.86.567.939 1.135.939h6.19zm49.494 1.904c-.026-1.252-.928-2.191-2.218-2.243-.464-.026-.903-.026-1.264-.026h-.773c-.13 0-.18-.026-.207-.026 0-.026.026-.13.13-.366.67-1.252.902-2.53.644-3.834-.387-2.14-1.96-3.783-4.075-4.279a5.266 5.266 0 00-2.012-.156c-3.43.443-5.751 2.66-7.402 4.539-.051.052-.077.104-.129.157-.026.026-.051.078-.077.104-.103.104-.18.235-.284.365-.18.235-.335.47-.567.626-.078 0-.18-.052-.284-.13a2.432 2.432 0 00-.516-.287l-.154-.078h-.026a3.5 3.5 0 00-1.264-.235h-.155c-.438 0-.877.078-1.264.235h-.025l-.155.078c-.206.104-.361.182-.516.287-.129.078-.232.13-.284.13-.206-.13-.386-.365-.541-.626-.078-.13-.18-.235-.284-.365-.026-.026-.052-.078-.077-.104-.052-.053-.078-.105-.13-.157-1.65-1.878-3.997-4.096-7.401-4.54a5.305 5.305 0 00-2.012.157c-2.115.496-3.688 2.14-4.075 4.279-.232 1.304-.026 2.582.645 3.834.129.21.129.313.129.366-.026 0-.078.026-.181.026h-.774c-.335 0-.8 0-1.264.026-1.29.052-2.192.991-2.218 2.243-.025 1.018-.025 2.035-.025 3.183v1.016c0 .626 0 1.252.026 1.879.025 1.07.567 1.852 1.521 2.139.361.13.748.156 1.058.13.36 0 .644.026.722.13.077.105.077.47.077.992 0 1.017 0 2.035-.026 3.026v.365l.052.078v2.948c0 3.757-.026 7.618 0 11.453 0 2.06.851 2.869 2.966 2.869h28.241c2.141 0 2.966-.809 2.966-2.87.026-3.782 0-7.643 0-11.373V51.73l.052-.079v-.365c0-1.017-.026-2.035-.026-3.026 0-.496 0-.861.078-.991.077-.105.36-.105.696-.13.335 0 .696 0 1.057-.131.955-.287 1.522-1.07 1.548-2.166 0-.626.026-1.226.026-1.852v-1.07a31.99 31.99 0 00.051-3.13zm-38.094 6.6c-.876 0-1.031-.182-1.057-1.043V39.26c0-.704.258-.965.928-.965 4.566-.026 9.156 0 13.644-.026.31.026.464.078.464.573a225.989 225.989 0 000 5.922c0 .548-.154.574-.387.626H27.88zm13.98 9.261v12c0 .391-.078.496-.13.548-.103.052-.258.078-.464.078-.516-.026-1.032-.026-1.496-.026-.49 0-.954 0-1.34.026h-7.145c-.929 0-1.058-.13-1.058-1.121v-5.113c0-4.305 0-8.74-.025-13.122 0-.34.051-.522.129-.626.103-.105.283-.157.619-.13H31c3.07.025 6.164.025 9.26 0h1.083l.025-.262v.261c.052 0 .103 0 .13.026.025 0 .05 0 .077.026.154.053.283.157.283.73-.025 2.218 0 4.514 0 6.705zM41.987 36c-.129.287-.412.47-.773.496h-9.027c-.31-.026-.542-.183-.774-.47-1.47-2.009-1.316-4.148.412-5.583.31-.26.645-.443.98-.573a4.027 4.027 0 012.09-.079c3.275.679 5.313 3.052 7.015 5.53.155.236.18.47.077.679zm1.806.13c.155-.73 1.006-1.434 1.702-1.434.722.026 1.547.73 1.702 1.434.052.21.026.287 0 .313-.026.053-.103.053-.18.079h-3.069a.277.277 0 01-.181-.078c0-.027-.026-.105.026-.314zm3.43 30.261c0 .366 0 .73-.077.783-.078.078-.413.078-.826.078h-1.754c-.412 0-.748 0-.825-.078-.077-.052-.077-.417-.077-.783V39.21c0-.366 0-.73.077-.835.052-.078.361-.078.645-.104h2.064c.284 0 .593.026.645.104.077.104.077.47.077.835v9.626l.052 17.556zm1.831-31.043c1.702-2.478 3.74-4.852 7.015-5.53.31-.053.62-.105.903-.105.413 0 .8.052 1.16.183.362.13.697.339 1.006.574 1.729 1.434 1.91 3.574.413 5.582-.232.313-.438.444-.748.47h-9.052a.93.93 0 01-.774-.496.648.648 0 01.077-.678zM60.74 61.07v5.06c0 .992-.13 1.122-1.058 1.122h-7.144a52.06 52.06 0 00-2.863 0c-.206 0-.36-.026-.438-.052-.078-.052-.155-.157-.155-.548.026-2.322.026-4.695 0-6.991v-5.009c0-2.191 0-4.487-.026-6.73 0-.574.13-.678.284-.73.026 0 .051-.027.077-.027.052 0 .078-.026.13-.026l-.027-.26.052.26h1.082c3.095.026 6.216.026 9.285 0h.026c.335 0 .516.052.619.13.103.105.129.288.129.627.026 4.408.026 8.87.026 13.174zm3.404-16.722c0 .887-.18 1.043-1.057 1.043H49.494c-.258-.026-.413-.078-.387-.626.026-1.8.026-3.73 0-5.922 0-.495.129-.547.438-.573 4.565 0 9.105 0 13.67.026.67 0 .928.26.928.965v5.087z"/></g><defs><clipPath id="clip0"><path fill="#fff" d="M0 0h66v69H0z"/></clipPath></defs></svg>