<svg width="72" height="66" fill="none" xmlns="http://www.w3.org/2000/svg"><g clip-path="url(#clip0)"><path d="M39.995 2.61h0c3.935 7.133 7.874 14.26 11.813 21.388C58.29 35.73 64.773 47.46 71.236 59.2h0c.95 1.711.903 3.398.125 4.655-.778 1.258-2.295 2.095-4.307 2.095h0c-5.882.016-11.764.01-17.645.005a9267.31 9267.31 0 00-8.823-.005H4.87c-1.517 0-2.771-.495-3.621-1.334C.4 63.776-.048 62.59.05 61.2c.049-.68.294-1.289.616-1.902v-.002c10.439-18.92 20.877-37.84 31.314-56.734C32.868.972 34.145.05 35.963.05c.935 0 1.72.238 2.383.675.663.438 1.204 1.078 1.649 1.886zm29.318 58.222h0a4.553 4.553 0 00-.299-.558 8.712 8.712 0 01-.151-.26h0l-.021-.038c-7.375-13.364-14.75-26.73-22.148-40.119a2556.76 2556.76 0 00-8.799-16.013v-.001c-.424-.742-.934-1.355-1.883-1.355-.944 0-1.529.558-1.907 1.33-.05.076-.1.174-.127.251a126564.5 126564.5 0 01-9.64 17.45A62920.432 62920.432 0 003.014 60.137h0c-.55 1.004-.64 1.85-.282 2.449.359.599 1.152.927 2.314.927h61.759l.221.003c.232.004.477.01.706-.029 1.324-.152 2.09-1.417 1.58-2.655z" fill="#8E2E88" stroke="#fff" stroke-width=".1"/><mask id="a" fill="#fff"><path d="M35.988 60.925H9.072c-1.64-.025-2.138-.838-1.367-2.242 2.212-4.09 4.448-8.18 6.66-12.269L34.496 9.386c.075-.123.15-.27.224-.419.274-.517.597-.911 1.268-.936.696-.024 1.068.394 1.367.936 1.814 3.351 3.653 6.726 5.467 10.077l21.4 39.393c.148.27.297.542.397.837.273.764-.2 1.503-1.02 1.626-.347.05-.67.025-1.018.025H35.988zm.025-48.977c-.174.271-.249.37-.299.468-8.201 15.078-16.378 30.155-24.58 45.232-.422.764-.099.764.522.764h12.402c1.765 0 1.765 0 1.765-1.75V32.47c0-1.33.372-1.798 1.54-1.823 3.604-.024 7.208-.098 10.812.025 5.666.197 10.19 4.508 10.513 9.83.348 5.666-3.355 10.42-8.923 11.43-1.391.247-2.783.173-4.175.149-.696-.025-.895.221-.87.911.05 1.478.075 2.956 0 4.435-.05.813.199 1.034 1.02 1.034 8.126-.024 16.278-.024 24.405-.024 1.118 0 1.143 0 .597-.986A62132.258 62132.258 0 0138.374 16.26a201.92 201.92 0 00-2.361-4.312zm-7.655 33.826c0 3.941.025 7.883 0 11.825 0 .665.199.862.845.838.596-.05 1.168 0 1.764 0 1.218 0 1.218 0 1.218-1.183 0-2.07-.025-4.114 0-6.183.025-1.035.447-1.454 1.491-1.479 1.367-.024 2.734 0 4.101 0 4.673-.024 8.35-3.596 8.4-8.13.05-4.607-3.653-8.253-8.425-8.277-2.783-.025-5.592.024-8.375-.025-.796-.024-1.044.148-1.044.986.05 3.892.025 7.76.025 11.628z"/></mask><path d="M35.988 60.925H9.072c-1.64-.025-2.138-.838-1.367-2.242 2.212-4.09 4.448-8.18 6.66-12.269L34.496 9.386c.075-.123.15-.27.224-.419.274-.517.597-.911 1.268-.936.696-.024 1.068.394 1.367.936 1.814 3.351 3.653 6.726 5.467 10.077l21.4 39.393c.148.27.297.542.397.837.273.764-.2 1.503-1.02 1.626-.347.05-.67.025-1.018.025H35.988zm.025-48.977c-.174.271-.249.37-.299.468-8.201 15.078-16.378 30.155-24.58 45.232-.422.764-.099.764.522.764h12.402c1.765 0 1.765 0 1.765-1.75V32.47c0-1.33.372-1.798 1.54-1.823 3.604-.024 7.208-.098 10.812.025 5.666.197 10.19 4.508 10.513 9.83.348 5.666-3.355 10.42-8.923 11.43-1.391.247-2.783.173-4.175.149-.696-.025-.895.221-.87.911.05 1.478.075 2.956 0 4.435-.05.813.199 1.034 1.02 1.034 8.126-.024 16.278-.024 24.405-.024 1.118 0 1.143 0 .597-.986A62132.258 62132.258 0 0138.374 16.26a201.92 201.92 0 00-2.361-4.312zm-7.655 33.826c0 3.941.025 7.883 0 11.825 0 .665.199.862.845.838.596-.05 1.168 0 1.764 0 1.218 0 1.218 0 1.218-1.183 0-2.07-.025-4.114 0-6.183.025-1.035.447-1.454 1.491-1.479 1.367-.024 2.734 0 4.101 0 4.673-.024 8.35-3.596 8.4-8.13.05-4.607-3.653-8.253-8.425-8.277-2.783-.025-5.592.024-8.375-.025-.796-.024-1.044.148-1.044.986.05 3.892.025 7.76.025 11.628z" fill="#8E2E88"/><path d="M9.072 60.925l-.002.1h.002v-.1zm-1.367-2.242l.087.048-.087-.048zm6.66-12.269l-.088-.047.088.047zM34.496 9.386l-.085-.052-.002.005.087.047zm.224-.419l-.088-.046-.001.001.09.045zm1.268-.936l-.004-.1.004.1zm1.367.936l.088-.047-.088.047zm5.467 10.077l-.088.047.088-.047zm21.4 39.393l-.089.047.088-.047zm.397.837l-.095.032v.002l.095-.034zm-1.02 1.626l.015.1-.014-.1zM36.014 11.948l.087-.049-.082-.144-.09.14.085.053zm-.299.468l.088.048.002-.002-.09-.046zm-24.58 45.232l.088.049-.088-.049zm16.23-27l-.001-.1h-.002l.003.1zm10.81.024l.004-.1-.003.1zm10.514 9.83l-.1.006.1-.006zm-8.923 11.43l.018.1-.018-.1zm-4.175.149l-.004.1h.002l.002-.1zm-.87.911l.1-.003-.1.003zm0 4.435l.1.006v-.001l-.1-.005zm1.02 1.034v.1-.1zm25.002-1.01l-.088.048.088-.048zM38.374 16.26l-.089.047.089-.047zM28.358 57.6l-.1-.002v.001h.1zm.845.837l.004.1h.004l-.008-.1zm2.982-7.366l-.1-.003v.001l.1.002zm1.491-1.479l-.001-.1h-.001l.002.1zm4.101 0v.1-.1zm8.4-8.13l.1.002-.1-.002zm-8.425-8.277v.1-.1zm-8.375-.025l-.003.1h.001l.002-.1zm-1.044.986h-.1.1zm7.655 26.679H9.246v.2h26.742v-.2zm-26.742 0h-.174v.2h.174v-.2zm-.173 0c-.812-.012-1.299-.22-1.504-.556-.203-.334-.158-.844.223-1.538l-.175-.096c-.39.71-.48 1.309-.218 1.738.261.429.843.64 1.671.652l.003-.2zm-1.28-2.094c1.106-2.045 2.218-4.09 3.33-6.135a3079.47 3079.47 0 003.33-6.134l-.176-.095c-1.105 2.044-2.218 4.09-3.33 6.134-1.112 2.045-2.224 4.09-3.33 6.135l.176.095zm6.66-12.269L24.52 27.948 34.584 9.434l-.175-.095-10.066 18.514-10.066 18.514.176.095zm20.13-37.024c.076-.127.152-.279.227-.425l-.18-.09a6.403 6.403 0 01-.219.412l.171.103zm.226-.424c.134-.255.276-.469.46-.623.181-.151.408-.248.722-.26l-.007-.2a1.338 1.338 0 00-.843.307c-.214.179-.37.42-.51.683l.178.093zm1.182-.883c.325-.011.57.08.768.235.202.157.361.383.508.65l.175-.097c-.151-.275-.327-.53-.56-.711a1.328 1.328 0 00-.898-.277l.007.2zm1.276.884c.907 1.675 1.82 3.357 2.734 5.038.913 1.682 1.826 3.363 2.733 5.038l.176-.095c-.907-1.675-1.82-3.357-2.734-5.038a4292.02 4292.02 0 01-2.733-5.038l-.176.095zm5.467 10.076l10.7 19.697 10.7 19.696.175-.095-10.7-19.697L42.91 18.996l-.175.095zm21.4 39.394c.15.272.294.535.39.821l.19-.064c-.103-.305-.257-.584-.405-.853l-.176.096zm.39.823c.251.7-.176 1.379-.94 1.493l.03.198c.878-.132 1.395-.93 1.099-1.758l-.188.067zm-.938 1.493c-.339.048-.648.024-1.005.024v.2c.338 0 .675.025 1.033-.026l-.028-.198zm-1.005.024H35.988v.2H62.58v-.2zm-26.653-48.93c-.086.134-.147.226-.195.297-.046.071-.08.124-.108.18l.179.09c.022-.044.05-.089.096-.16.046-.07.11-.163.197-.3l-.169-.108zm-.301.474a33319.66 33319.66 0 00-12.29 22.616A41203.26 41203.26 0 0111.047 57.6l.175.096c4.101-7.539 8.196-15.077 12.29-22.616 4.095-7.538 8.19-15.077 12.29-22.616l-.175-.095zm-24.58 45.23a1.659 1.659 0 00-.195.473c-.023.128-.003.24.085.319.078.07.192.096.306.108.117.013.26.013.413.013v-.2c-.157 0-.288 0-.392-.011-.108-.012-.165-.034-.193-.059-.018-.016-.038-.047-.022-.134.016-.091.069-.223.173-.411l-.175-.097zm.61.913h12.4v-.2H11.656v.2zm12.401 0c.439 0 .776 0 1.031-.028.254-.028.449-.086.584-.22.135-.134.193-.327.222-.579.028-.253.028-.587.028-1.022h-.2c0 .44 0 .76-.027 1s-.079.375-.164.46c-.086.084-.223.136-.465.162-.241.027-.565.027-1.009.027v.2zm1.865-1.85V32.47h-.2v24.193h.2zm0-24.192c0-.662.094-1.08.309-1.337.21-.252.559-.374 1.134-.386l-.005-.2c-.593.013-1.015.138-1.283.458-.263.315-.355.797-.355 1.465h.2zm1.441-1.723c3.606-.024 7.206-.098 10.807.025l.007-.2c-3.606-.123-7.213-.05-10.815-.025l.001.2zm10.807.025c5.619.195 10.097 4.469 10.417 9.736l.2-.012c-.327-5.376-4.895-9.725-10.61-9.924l-.007.2zm10.417 9.736c.345 5.616-3.324 10.325-8.84 11.326l.035.197c5.618-1.02 9.356-5.82 9.005-11.535l-.2.012zm-8.84 11.326c-1.38.244-2.76.171-4.156.147l-.004.2c1.387.024 2.791.099 4.195-.15l-.035-.197zm-4.154.147c-.354-.013-.618.04-.783.22-.163.176-.203.447-.19.795l.2-.008c-.013-.342.033-.539.137-.652.102-.11.286-.168.629-.155l.007-.2zm-.974 1.014c.05 1.478.075 2.953 0 4.427l.2.01c.075-1.483.05-2.964 0-4.443l-.2.007zm0 4.425c-.025.41.021.71.213.9.19.188.496.241.906.241v-.2c-.41 0-.638-.057-.765-.183-.125-.124-.179-.342-.154-.745l-.2-.013zm1.12 1.141c8.126-.024 16.278-.024 24.405-.024v-.2c-8.127 0-16.279 0-24.406.024v.2zm24.405-.024c.277 0 .495 0 .652-.016a.852.852 0 00.207-.043.286.286 0 00.148-.111.275.275 0 00.035-.182.784.784 0 00-.058-.202 6.382 6.382 0 00-.3-.58l-.175.097c.138.248.235.427.29.559a.65.65 0 01.045.149c.004.033-.002.047-.006.052-.004.006-.014.018-.048.031a.664.664 0 01-.158.03c-.145.016-.35.016-.632.016v.2zm.684-1.133C53.373 43.68 45.918 29.959 38.463 16.212l-.176.095c7.456 13.747 14.912 27.47 22.368 41.192l.175-.096zM38.463 16.212a201.64 201.64 0 00-2.362-4.314l-.175.099a202.016 202.016 0 012.36 4.309l.177-.094zm-10.204 29.56c0 3.943.025 7.884 0 11.825l.2.002c.025-3.943 0-7.885 0-11.826h-.2zm0 11.826c0 .335.048.588.21.749.162.16.412.201.739.189l-.008-.2c-.32.012-.492-.034-.59-.132-.1-.098-.151-.276-.151-.606h-.2zm.953.937c.592-.049 1.148 0 1.756 0v-.2c-.584 0-1.171-.049-1.772.001l.016.2zm1.756 0c.302 0 .537 0 .715-.018.177-.02.32-.06.42-.157.102-.099.144-.239.164-.412.02-.173.02-.402.02-.695h-.2c0 .298-.001.513-.02.672-.018.16-.052.242-.103.291-.051.05-.137.084-.302.102a7.334 7.334 0 01-.694.018v.2zm1.318-1.282c0-2.071-.025-4.114 0-6.182l-.2-.003c-.025 2.07 0 4.117 0 6.185h.2zm0-6.181c.012-.507.122-.839.334-1.05.212-.21.548-.319 1.06-.33l-.005-.2c-.532.012-.93.125-1.196.389-.266.264-.38.658-.393 1.186l.2.005zm1.393-1.38c1.366-.025 2.73 0 4.1 0v-.2c-1.365 0-2.736-.025-4.103 0l.003.2zm4.1 0c4.724-.026 8.45-3.64 8.5-8.23l-.2-.002c-.05 4.476-3.681 8.007-8.301 8.031v.2zm8.5-8.23c.05-4.665-3.701-8.353-8.525-8.378l-.001.2c4.72.024 8.375 3.628 8.326 8.176l.2.003zm-8.525-8.378c-2.789-.025-5.59.024-8.375-.025l-.003.2c2.782.05 5.598 0 8.376.025l.002-.2zm-8.373-.025c-.396-.012-.696.02-.89.195-.197.176-.257.47-.257.89h.2c0-.417.064-.628.19-.741.129-.115.351-.156.75-.144l.007-.2zm-1.147 1.087c.05 3.892.025 7.758.025 11.627h.2c0-3.867.025-7.736-.025-11.63l-.2.003z" fill="#fff" mask="url(#a)"/><path d="M33.603 45.724h0c-.467-.012-.8-.116-1.02-.32-.22-.202-.336-.513-.348-.961-.025-2.02-.025-4.064 0-6.084h0v0c0-.449.11-.772.327-.987.217-.216.55-.331 1.016-.343 1.541-.025 3.105-.05 4.643.049h0c2.433.146 4.128 2.093 4.054 4.53-.073 2.264-1.94 4.067-4.3 4.116h0c-.448.016-.905.01-1.36.005-.227-.002-.453-.005-.677-.005-.257 0-.514.003-.77.005-.516.006-1.035.011-1.565-.005zm-1.418-7.366c0-.911.447-1.354 1.392-1.38 1.54-.024 3.107-.049 4.648.05l-6.04 1.33zm2.666 4.932c.075.036.17.052.294.046.36-.01.72-.005 1.08-.001l.405.004c.495.003.988-.003 1.475-.053 1.02-.101 1.685-.887 1.71-1.847h0c.026-1.01-.639-1.82-1.683-1.972a4.215 4.215 0 00-.77-.028l-.258.01c-.157.008-.313.016-.47.017v-.024h-.05c-.127 0-.252.002-.377.005a8.232 8.232 0 01-.737-.005c-.275-.025-.492-.002-.636.116-.146.12-.201.326-.189.626h0c.05.828.026 1.631.001 2.461v.023h0v.047c-.001.064-.001.13.003.193a.64.64 0 00.047.22c.031.068.08.124.156.162z" fill="#8E2E88" stroke="#fff" stroke-width=".1"/></g><defs><clipPath id="clip0"><path fill="#fff" d="M0 0h72v66H0z"/></clipPath></defs></svg>