<svg width="75" height="76" fill="none" xmlns="http://www.w3.org/2000/svg"><path d="M57.76 40.444c-.42 0-.834.111-1.198.323h0l-8.004 4.76h0a8.34 8.34 0 00-2.981 3.059 8.478 8.478 0 00-1.096 4.153v9.06H56.3v-1.427c0-.849.182-1.688.532-2.46a5.88 5.88 0 011.497-2.008h0l5.464-4.75a3.6 3.6 0 001.123-1.807l5.086-19.23-.048-.013.048.013c.054-.206.08-.419.08-.632v0a2.453 2.453 0 00-.543-1.515 2.398 2.398 0 00-1.36-.84h0-.002a2.511 2.511 0 00-1.8.405 2.57 2.57 0 00-1.054 1.532s0 0 0 0L62.1 41.24l-.004.014.005.014a4.86 4.86 0 01-.048 3.284 4.78 4.78 0 01-2.12 2.484h0l-6.563 3.832h0a1.113 1.113 0 01-1.533-.417 1.15 1.15 0 01.412-1.556s0 0 0 0l6.561-3.831s0 0 0 0c.558-.307.98-.816 1.182-1.425a2.574 2.574 0 00-.093-1.858h0v-.002a2.382 2.382 0 00-.88-.98 2.339 2.339 0 00-1.26-.354zm0 0h-.001v.05-.05s0 0 0 0zm5.395-11.973h0a4.81 4.81 0 012.041-2.895 4.696 4.696 0 013.444-.682 4.649 4.649 0 012.64 1.637 4.76 4.76 0 01.888 4.177l-5.084 19.228h0a5.88 5.88 0 01-1.832 2.944h0l-5.464 4.75c-.39.339-.704.76-.918 1.233a3.65 3.65 0 00-.326 1.51V61.8h2.393c.298 0 .583.12.794.333.21.213.328.502.328.804v9.5c0 .302-.118.592-.328.805-.21.213-.496.333-.794.333H39.844c-.298 0-.583-.12-.793-.333a1.146 1.146 0 01-.33-.805v-9.5c0-.301.12-.59.33-.804.21-.213.495-.333.793-.333h2.393v-9.06a10.788 10.788 0 011.397-5.285 10.612 10.612 0 013.795-3.89l8.013-4.763s0 0 0 0a4.577 4.577 0 014.869.148l.058.039.018-.068 2.768-10.45zM59.765 71.3h.05v-7.225h-18.85V71.3h18.8zm-27.002-9.5v-9.06a10.787 10.787 0 00-1.394-5.285 10.61 10.61 0 00-3.792-3.891l-8.022-4.77s0 0 0 0a4.582 4.582 0 00-4.87.154l-.058.039-.017-.068-2.767-10.45v-.001h0a4.817 4.817 0 00-2.044-2.893 4.703 4.703 0 00-3.443-.683c-.616.131-1.2.389-1.714.756a4.684 4.684 0 00-1.281 1.382 4.747 4.747 0 00-.534 3.674l5.086 19.23h0a5.87 5.87 0 001.83 2.944h0l5.464 4.75L32.764 61.8zm0 0h.05m-.05 0h.05m0 0h2.343c.298 0 .583.12.793.333.21.213.33.503.33.804v9.5c0 .302-.12.592-.33.805-.21.213-.495.333-.793.333H14.063c-.298 0-.583-.12-.793-.333a1.146 1.146 0 01-.33-.805v-9.5c0-.301.12-.59.33-.804.21-.213.495-.333.793-.333h2.393m16.357 0H16.456m0 0v-.05m0 .05v-.05m0 0v-1.377c0-.522-.112-1.037-.327-1.511a3.606 3.606 0 00-.922-1.233l1.25 4.121zM4.998 30.116h0a2.419 2.419 0 01-.08-.63s0 0 0 0l.08.63zm0 0l5.086 19.229m-5.086-19.23l5.086 19.23m2.823-8.104l-.005.015a4.86 4.86 0 00.047 3.284 4.78 4.78 0 002.12 2.484h0l6.563 3.833h0a1.114 1.114 0 001.534-.417c.148-.262.189-.573.111-.865a1.136 1.136 0 00-.523-.691s0 0 0 0l-6.562-3.831s0 0 0 0a2.536 2.536 0 01-1.182-1.425 2.574 2.574 0 01.092-1.859v-.002h0c.2-.4.504-.737.882-.971a2.343 2.343 0 011.255-.352m-4.332.797l-1.7 9.91 5.464 4.75.032-.036-.032.036a5.88 5.88 0 011.498 2.01c.35.773.531 1.612.531 2.462V61.8h11.82v-9.06 0a8.476 8.476 0 00-1.095-4.154 8.338 8.338 0 00-2.982-3.059h0l-8.013-4.765h0a2.37 2.37 0 00-1.19-.318m-4.332.797l-.004-.014m.004.014l-.004-.014m4.336-.783s0 0 0 0v.05-.05s0 0 0 0zm-4.336.783L9.68 29.057s0 0 0 0l3.224 12.17zm-2.82 8.118h0a3.591 3.591 0 001.124 1.806l-1.123-1.806zM33.985 71.3h.05v-7.225h-18.85V71.3h18.8zM37.5 43.836l-.024-.012-2.136-1.156a27.11 27.11 0 01-10.455-10.061 27.59 27.59 0 01-3.841-14.082M37.5 43.836l2.16-1.168a27.108 27.108 0 0010.455-10.06 27.588 27.588 0 003.841-14.083V5.522l-.075.043a14.984 14.984 0 01-14.242.362h0l-2.126-1.076-.022-.011-.023.011-2.11 1.07h0a14.986 14.986 0 01-7.163 1.623 15 15 0 01-7.076-1.979l-.075-.043v13.003M37.5 43.836l.024-.012 2.136-1.156-2.16 1.168zM21.044 18.525h.05-.05v0zM56.2 3.562v14.963a29.881 29.881 0 01-4.16 15.253 29.362 29.362 0 01-11.323 10.898h0l-2.689 1.452h0a1.11 1.11 0 01-1.056 0h0l-2.689-1.452h0A29.364 29.364 0 0122.96 33.778a29.884 29.884 0 01-4.16-15.253v0V3.563h0a1.15 1.15 0 01.56-.988 1.11 1.11 0 011.123 0h0l1.665.965a12.77 12.77 0 0012.21.34l2.631-1.336s0 0 0 0a1.11 1.11 0 011.003 0l2.65 1.342a12.775 12.775 0 0012.205-.344l1.67-.967h0a1.11 1.11 0 011.533.418c.099.173.15.37.15.57z" fill="#8E2E88" stroke="#35B6B4" stroke-width=".1"/><path d="M25.731 18.525a22.799 22.799 0 003.154 11.603 22.405 22.405 0 008.591 8.311l.024.013-.046-28.283h.001m-11.724 8.356h.05-.05v0zm0 0v-6.438l.057.008c3.992.561 8.058-.11 11.667-1.927m0 0l.02-.011.025-.014.024.014.027.015m-.096-.004l.096.004m0 0a19.78 19.78 0 0011.66 1.924l.058-.008v6.437L37.55 10.172zm12.603-.557h0a1.106 1.106 0 01.941.227 1.134 1.134 0 01.418.886v7.797a25.091 25.091 0 01-3.494 12.809 24.655 24.655 0 01-9.51 9.15h0l-.482.261a1.11 1.11 0 01-1.055 0l-.482-.26h0a24.655 24.655 0 01-9.509-9.151 25.09 25.09 0 01-3.494-12.809v0-7.798a1.15 1.15 0 01.416-.883 1.116 1.116 0 01.937-.23c3.924.847 8.014.325 11.607-1.484h0l.541-.274h0a1.109 1.109 0 011.01 0h0l.553.28h0a17.561 17.561 0 0011.603 1.48z" fill="#8E2E88" stroke="#35B6B4" stroke-width=".1"/><path d="M35.12 25.669l.036.036.036-.036 8.973-9.093-.036-.035.037.034a1.122 1.122 0 01.797-.347 1.11 1.11 0 01.802.333 1.137 1.137 0 01.33.815 1.152 1.152 0 01-.344.808h0l-9.802 9.933a1.114 1.114 0 01-1.586 0l-4.486-4.546s0 0 0 0a1.146 1.146 0 01.014-1.595 1.114 1.114 0 011.572-.014l3.658 3.707z" fill="#8E2E88" stroke="#35B6B4" stroke-width=".1"/></svg>