<svg width="65" height="65" fill="none" xmlns="http://www.w3.org/2000/svg"><g clip-path="url(#clip0)"><path d="M64.708 52.481L43.92 31.694l15.602-15.602a.947.947 0 00.224-.359l.006-.012 2.689-7.618s0 0 0 0l2.353-6.667A.953.953 0 0063.58.22l-6.666 2.354s0 0 0 0l-7.62 2.689-.012.006a.946.946 0 00-.358.224l-8.451 8.45a.953.953 0 001.347 1.348l7.777-7.777 7.905 7.904-20.479 20.48-5.97 5.97s0 0 0 0l-10.76 10.76-7.905-7.905 26.734-26.734a.953.953 0 00-1.347-1.347l-4.453 4.453-2.847-2.848h-.001v-.002l-4.067-4.066s0 0 0 0h-.001l-4.065-4.066-.002-.001v-.002L12.505.28a.952.952 0 00-1.348-.001L.312 11.127a.953.953 0 000 1.347l4.165 4.166a.953.953 0 001.348-1.347L2.33 11.8l9.502-9.5 4.418 4.418-2.658 2.659a.952.952 0 101.347 1.347l2.659-2.659 2.72 2.72-4.006 4.006a.953.953 0 101.348 1.347l4.005-4.006 2.72 2.72-2.659 2.659a.952.952 0 101.348 1.347l2.658-2.659 2.72 2.72-4.005 4.006a.953.953 0 001.347 1.347l4.006-4.005 2.175 2.175-1.216 1.216-8.285 8.284-13.941-13.94a.953.953 0 00-1.348 1.347l13.941 13.94L1.22 53.198a4.082 4.082 0 00-1.204 2.906c0 1.098.427 2.13 1.204 2.906l4.787 4.787A4.083 4.083 0 008.912 65c1.098 0 2.13-.428 2.906-1.204l4.142-4.142.001-.001 5.005-5.004 10.76-10.76 5.312 5.312a.953.953 0 001.347-1.347l-5.313-5.312 5.23-5.23 4.271-4.27 2.147 2.146-2.658 2.66a.953.953 0 001.347 1.346l2.659-2.658 2.72 2.72-4.006 4.005a.953.953 0 001.348 1.348l4.005-4.006 2.72 2.72-2.659 2.659a.953.953 0 001.348 1.347l2.659-2.659 2.72 2.72-4.006 4.006a.953.953 0 001.347 1.347l4.006-4.006 4.418 4.419-9.501 9.5-12.031-12.03a.953.953 0 00-1.347 1.347l12.704 12.704a.95.95 0 001.348 0L64.709 53.83a.953.953 0 000-1.348zm-2.373-49.8l-1.187 3.362-2.176-2.176 3.363-1.187zM51.354 6.556L56.98 4.57l3.464 3.464-1.986 5.627-7.105-7.104zM10.47 62.449a2.19 2.19 0 01-1.559.646 2.19 2.19 0 01-1.558-.646l-4.788-4.787a2.19 2.19 0 01-.646-1.559c0-.589.23-1.142.646-1.559l3.469-3.468 7.904 7.905-3.469 3.468zm4.816-4.816l-7.905-7.905 3.658-3.658 7.905 7.905-3.659 3.658z" fill="#8E2E88" stroke="#8E2E88" stroke-width=".3"/></g><defs><clipPath id="clip0"><path fill="#fff" d="M0 0h65v65H0z"/></clipPath></defs></svg>